<?xml version="1.0" encoding="UTF-8" standalone="no"?>
<!-- Created with Inkscape (http://www.inkscape.org/) -->

<svg
   inkscape:export-ydpi="96"
   inkscape:export-xdpi="96"
   inkscape:export-filename="NixCon_poster.png"
   width="2390.2876"
   height="2320.9343"
   viewBox="0 0 632.43019 614.08047"
   version="1.1"
   id="svg4178"
   xml:space="preserve"
   inkscape:version="1.2.1 (9c6d41e410, 2022-07-14)"
   sodipodi:docname="NIXCON_Darmstadt_2023-logo.svg"
   xmlns:inkscape="http://www.inkscape.org/namespaces/inkscape"
   xmlns:sodipodi="http://sodipodi.sourceforge.net/DTD/sodipodi-0.dtd"
   xmlns="http://www.w3.org/2000/svg"
   xmlns:svg="http://www.w3.org/2000/svg"
   xmlns:rdf="http://www.w3.org/1999/02/22-rdf-syntax-ns#"
   xmlns:cc="http://creativecommons.org/ns#"
   xmlns:dc="http://purl.org/dc/elements/1.1/"><title
     id="title73791">NixCon</title><sodipodi:namedview
     id="namedview4180"
     pagecolor="#ffffff"
     bordercolor="#666666"
     borderopacity="1.0"
     inkscape:showpageshadow="2"
     inkscape:pageopacity="0.0"
     inkscape:pagecheckerboard="0"
     inkscape:deskcolor="#d1d1d1"
     inkscape:document-units="px"
     showgrid="false"
     inkscape:zoom="0.196654"
     inkscape:cx="790.72889"
     inkscape:cy="1896.7323"
     inkscape:window-width="2558"
     inkscape:window-height="1413"
     inkscape:window-x="0"
     inkscape:window-y="0"
     inkscape:window-maximized="1"
     inkscape:current-layer="svg4178"
     inkscape:lockguides="false"
     showguides="true"><inkscape:grid
       type="xygrid"
       id="grid9128"
       snapvisiblegridlinesonly="true"
       visible="true"
       color="#d861e1"
       opacity="0.21568627"
       empcolor="#7d1f6e"
       empopacity="0.34117647"
       spacingx="4.5828479"
       spacingy="3.96875"
       empspacing="4"
       originx="256.6394"
       dotted="false"
       originy="571.50052"
       enabled="true" /><inkscape:grid
       type="axonomgrid"
       id="grid14379"
       empspacing="12"
       gridanglex="60"
       gridanglez="60"
       originx="256.6394"
       originy="571.50052"
       color="#3c30c6"
       opacity="0.1254902"
       spacingy="2.6458333"
       empcolor="#449355"
       empopacity="0.50196078"
       units="px" /></sodipodi:namedview><defs
     id="defs4175"><rect
       x="4.399219"
       y="2004.9987"
       width="1077.8812"
       height="285.45999"
       id="rect388" /><rect
       x="1027.5321"
       y="1993.0062"
       width="220.50955"
       height="94.913269"
       id="rect51382" /><rect
       x="-644.89417"
       y="467.57236"
       width="570.93323"
       height="242.86934"
       id="rect4581" /><rect
       x="272.90686"
       y="811.47357"
       width="218.63672"
       height="237.05414"
       id="rect1582" /><rect
       x="111.53955"
       y="389.4021"
       width="621.83411"
       height="243.98218"
       id="rect17178" /><rect
       x="111.53955"
       y="389.4021"
       width="621.83411"
       height="243.98218"
       id="rect17178-7" /><rect
       x="111.53955"
       y="389.4021"
       width="621.83411"
       height="243.98218"
       id="rect17178-6" /><rect
       x="111.53955"
       y="389.4021"
       width="621.83411"
       height="243.98218"
       id="rect17178-7-6" /><rect
       x="111.53955"
       y="389.4021"
       width="621.83411"
       height="243.98218"
       id="rect17178-6-6" /><inkscape:path-effect
       effect="fill_between_many"
       method="originald"
       linkedpaths="#path30214,0,1"
       id="path-effect30229"
       is_visible="true"
       lpeversion="0"
       join="true"
       close="true"
       autoreverse="true" /><rect
       x="1027.5321"
       y="1993.0062"
       width="220.50955"
       height="94.913269"
       id="rect51382-9" /><rect
       x="4.399219"
       y="2004.9987"
       width="1077.8812"
       height="285.45999"
       id="rect388-3" /></defs><path
     id="path23518-7-3-7"
     style="display:inline;fill:#000000;stroke:none;stroke-width:1.4px;stroke-linecap:butt;stroke-linejoin:miter;stroke-opacity:1"
     inkscape:label="N"
     d="m 439.95334,269.87558 v 253.98965 l 192.47406,0.0103 -0.005,-253.99998 z m 9.16791,7.92303 h 174.13979 l 0.004,238.13997 -174.1434,-0.0103 z m 169.55919,3.9827 -164.97652,5.2e-4 v 230.17818 l 164.98065,0.009 z m -41.14583,7.44141 c 0.013,37.41979 0.85008,75.79452 0.0233,112.78174 -40.1092,-56.73294 -81.44066,-74.9446 -81.29116,-111.90945 z m -89.56457,0.33124 c 0,13.99173 3.71255,26.08149 10.60814,35.99987 26.28397,37.34133 65.21072,60.96921 84.96691,103.07174 1.68543,3.2161 2.17328,4.16498 3.05925,0.007 l -0.004,-138.91297 h 22.91387 l 0.005,214.31249 H 495.14822 l -0.1478,-132.4379 c 43.2382,40.60497 73.03132,77.61552 78.72543,132.16712 l -17.59686,0.26975 h 25.88835 c -2.60494,-18.95084 -6.67099,-38.34485 -16.17163,-56.056 -17.86509,-33.50314 -44.73271,-63.58651 -75.85377,-90.32834 -0.53029,-0.2388 -0.99754,-0.36589 -1.4087,-0.39377 -0.13705,-0.009 -0.2679,-0.008 -0.39274,0.005 -2.16374,0.21388 -2.52913,3.61202 -2.41019,7.86773 l 0.1788,139.47726 -23.8559,-0.57154 c 0.43587,-71.06281 1.90536,-139.99462 0.76429,-214.31248 z m 86.74872,2.73782 -75.53648,0.0915 c 2.76756,36.44686 44.77214,57.78923 75.69202,101.64857 1.1449,-32.87844 -0.14258,-84.7835 -0.15554,-101.74004 z m -43.26713,4.50102 c 0,0 1.96599,0.17861 2.88199,0.49402 2.40646,0.82867 1.98541,4.26331 1.98541,4.26331 0,0 -4.02678,8.15224 -6.4332,12.32224 -1.87555,4.75922 -2.91051,4.95858 -1.15497,8.63824 l -0.1328,-0.17157 0.14314,0.19534 c -0.002,-0.004 0.52717,0.51936 0.52617,0.51469 l 4.1031,5.33353 c 0.40269,0.45526 0.72431,0.81149 1.10226,1.23765 5.62756,-9.35941 10.57134,-18.3225 14.36967,-32.62592 1.76731,1.72036 5.30351,3.22379 3.39618,9.70897 -1.51767,3.05493 -3.37261,8.74379 -5.04156,11.76983 5.49087,-0.77568 5.5928,-1.36347 12.27884,-0.91364 1.43875,0.0967 10.33912,1.29465 10.77712,2.21433 -0.13229,4.76208 -1.65098,3.78901 -3.38119,4.01474 -5.13246,-0.5117 -8.55975,-1.57873 -13.70562,-0.49041 -3.70091,0.4848 -7.74743,1.2605 -9.69863,3.72949 -0.72118,0.70123 -1.81733,2.72159 -1.99007,2.86701 -0.95993,1.58285 -1.35153,2.0333 -2.61379,4.04885 5.71203,6.07087 10.1716,9.14174 18.53117,10.44949 l 5.81877,-0.33693 c 4.81452,10e-4 7.03471,-0.14779 7.03471,-0.14779 l 1.71411,2.96984 -1.72135,2.97811 -14.67869,0.69402 c 7.00515,12.50323 19.66543,20.95512 15.27168,28.61615 -26.90331,-29.13331 -34.29693,-37.74415 -42.99298,-48.48936 l -10e-4,-0.002 h -5.1e-4 v -5.1e-4 C 516.4967,317.91936 511.95333,307.9777 507.11579,299.66607 l -1.54926,-3.77238 c 8.95721,-0.0182 8.87129,5.02521 17.51934,17.85369 z m 41.06881,-1.91152 0.19534,10.88771 c 0,0 -2.25595,-0.791 -3.55431,-2.48977 -1.44026,-1.71177 -4.05704,-4.07689 -4.76663,-5.59397 -0.17026,-1.27539 -0.20516,-2.74195 -0.20516,-2.74195 z m -12.85658,10.31824 c 1.63942,-0.074 3.42619,1.60547 4.79247,4.63124 0,0 0.0409,2.24331 -0.66094,3.0825 -0.16488,0.19206 -0.36305,0.31294 -0.61391,0.31212 -1.33731,-0.004 -5.71671,-0.0781 -6.94221,-1.14411 -1.22539,-1.06606 -0.11546,-4.49086 1.85518,-6.20841 0.49268,-0.42941 1.02294,-0.64867 1.56941,-0.67334 z m 12.21201,25.14922 -1.60297,3.89156 c 0,0 -4.25871,1.46212 -5.18883,1.27331 -0.93011,-0.18882 -4.47955,0.45266 -5.29321,0.24546 -0.81367,-0.2072 -4.94341,-0.94276 -6.87213,-1.13928 -3.72236,-0.32385 -5.69975,1.21426 -7.17833,0.88429 0.0673,-1.2506 1.7403,-3.47105 3.22891,-4.14474 1.48862,-0.67369 5.61044,-0.97979 6.85023,-0.97979 1.23979,0 10.12021,1.49824 11.97136,0.97204 1.85115,-0.5262 3.88814,-1.39423 3.88814,-1.39423 z m -74.49348,47.63548 0.55294,123.43793 72.96247,0.26665 c -5.03048,-49.69262 -34.411,-87.045 -71.56049,-121.91451 z m 4.37751,9.44128 c 1.61256,0.0326 4.53819,1.49988 6.74946,10.55492 0.76313,3.12492 -6.38462,-2.21486 -6.38462,-2.21486 l -1.5596,-8.07289 c 0,0 0.46178,-0.28198 1.19476,-0.26717 z m 0.25735,12.90309 c 10.94165,4.83765 1.32236,7.20876 11.57914,16.80466 2.11394,-3.95778 4.09827,-6.4486 5.18883,-11.45408 l 4.11086,1.788 1.71462,2.96985 c 0,0 -2.18274,3.639 -4.68963,7.98401 l 0.10697,-0.13178 c -3.43992,5.96245 -2.08921,8.37882 0.32918,12.51138 l -0.0744,-0.0749 2.76056,4.78214 c 7.32489,-12.31746 4.3876,-11.35427 13.21934,-11.37967 -6.0335,8.05637 -11.01524,17.74647 -16.34732,28.70471 l 0.11472,-0.14728 c -3.4398,5.96243 -2.08922,8.3788 0.32918,12.51137 l -0.19637,-0.28732 3.2644,5.65392 -10e-4,0.002 3.43493,5.94951 2.76004,-4.78059 -0.076,0.0791 c 2.41828,-4.13256 3.76909,-6.54893 0.32917,-12.51138 l 0.0811,0.0879 c -1.80484,-3.12789 -2.32519,-3.38951 -2.47841,-3.29644 l 1.6459,-2.85046 3.4401,0.002 4.22455,6.07869 c 7.32564,-12.31849 4.38734,-11.35529 13.21935,-11.38069 -8.68236,12.31868 -12.45157,17.81135 -16.32511,28.66594 l 0.0966,-0.11059 c -3.43991,5.96233 -2.08922,8.37881 0.32918,12.51138 l -0.14521,-0.19637 3.21117,5.5609 c 6.53825,-9.20817 11.44943,-17.46157 17.185,-29.76252 4.39374,7.6609 3.56507,5.35779 -3.4401,17.86092 7.00909,7.97154 -0.62004,1.52829 -7.19594,12.5181 -1.20466,1.87798 -2.19861,3.35029 -3.60134,5.06688 l -5.22397,-0.51005 -1.53324,-0.42943 -2.80396,-4.29225 0.0631,0.16227 c -2.34903,-4.17016 -3.07602,-5.65411 -10.67067,-6.54121 l 0.15554,-0.0253 c -4.80488,-0.001 -6.72465,-0.003 -6.72465,-0.003 0,0 -1.5957,-1.88388 -1.71411,-2.96932 -0.11841,-1.08556 -1.96696,-2.24094 0.94155,-2.97812 2.90851,-0.73718 10.83353,0.0609 10.81639,-5.1e-4 -5.86541,-14.9045 -12.36285,-23.45885 -21.78833,-38.75887 8.78785,0.19334 3.32235,-0.10454 11.4763,8.99118 l 2.84427,-4.92631 -0.15916,0.22221 c 2.4184,-4.13268 3.76897,-6.54905 0.32918,-12.51138 l 0.10748,0.13746 c -7.4459,-17.92603 -15.64232,-17.48689 -14.2198,-35.29656 z m 3.05459,30.60124 c 1.6182,-0.019 3.37054,1.65482 4.71548,4.6333 0,0 0.0414,2.24383 -0.66043,3.08302 -0.16488,0.19206 -0.36357,0.31243 -0.61443,0.31161 -1.33731,-0.004 -5.7167,-0.0781 -6.94221,-1.14412 -1.22539,-1.06606 -0.11546,-4.49034 1.85518,-6.20789 0.49269,-0.42941 1.02294,-0.64919 1.56942,-0.67386 0.0256,-0.001 0.0513,-0.002 0.077,-0.002 z m 33.70802,6.72982 c 0,0 2.4491,0.68457 3.13211,1.71927 0.15493,0.24144 0.22143,0.49582 0.13901,0.76791 -0.43865,1.45072 -1.94283,6.1814 -3.49849,7.16546 -1.55568,0.98392 -4.91285,-1.33406 -6.1371,-4.0318 -1.2243,-2.69786 1.39232,-4.95424 6.36447,-5.62084 z m -31.00896,30.01934 c 1.6182,-0.019 3.37054,1.65484 4.71548,4.63331 0,0 0.0409,2.24331 -0.66094,3.0825 -0.16488,0.19206 -0.36306,0.31295 -0.61392,0.31213 -1.33731,-0.004 -5.7167,-0.0781 -6.94221,-1.14412 -1.22539,-1.06606 -0.11546,-4.49086 1.85518,-6.20841 0.49269,-0.42941 1.02294,-0.64867 1.56942,-0.67334 0.0256,-10e-4 0.0513,-0.002 0.077,-0.002 z m 57.46161,18.57923 c 1.008,4.51916 1.54992,8.935 1.43299,13.20488 -5.31257,-0.0733 -13.73334,1.13993 -14.44769,-1.22111 0,0 5.67159,-2.87115 10.54974,-6.15673 z m -64.4126,3.45302 c 0,0 2.00687,1.94612 1.97042,2.68201 -0.0638,1.28777 1.48724,5.01229 5.28546,4.94285 1.36974,-0.025 5.16661,2.08721 5.16661,2.08721 l -12.71912,-0.23616 z"
     sodipodi:nodetypes="ccccccccccccccccccccccccccccccccccccccccccccccccccccccccccccccccccccccccccccccccsccccsccccssccsssccsscccsccssccscccccccccccccccccccccccccccccccccccccccccccsscccccccccccccssccccccccccccsscccccccsscccssccc"
     inkscape:export-filename="./path23518-7-3-7.png"
     inkscape:export-xdpi="96"
     inkscape:export-ydpi="96" /><path
     id="path44602"
     style="font-weight:bold;font-size:21.3333px;line-height:0.85;font-family:Kramer;-inkscape-font-specification:'Kramer Bold';text-align:center;letter-spacing:0px;word-spacing:0px;white-space:pre;shape-inside:url(#rect17178-6-6);display:inline;fill:#000000;stroke-width:13.6093"
     inkscape:label="O"
     d="m 412.2291,269.875 c -64.08329,1.7e-4 -128.16803,3.5e-4 -192.25132,5.2e-4 l -0.76377,254 h 193.23781 c -0.0742,-84.6662 -0.14848,-169.3344 -0.22272,-254.00052 z m -183.09322,7.91476 h 173.94235 c 0.003,79.28944 0.007,158.5808 0.01,237.87024 -57.98168,-0.003 -115.96473,-0.007 -173.94649,-0.0103 z m 9.83558,7.91425 -2.06034,221.43299 c 29.77155,0.35401 59.53009,0.97137 89.30307,0.27492 23.0778,-0.1612 46.15693,-0.13955 69.23505,-0.12454 -0.0871,-73.60717 0.93667,-147.21102 1.14515,-220.8165 -52.5405,-0.25562 -105.08243,-0.51125 -157.62293,-0.76687 z m 6.56342,7.54941 34.68057,0.094 c -13.21674,9.2862 -24.57355,20.85824 -34.65267,33.4238 0.11253,-11.17107 0.27941,-22.34874 -0.0279,-33.51785 z m 114.10887,1.20875 c 2.95718,0.005 8.39094,0.79157 11.32843,0.70844 6.07036,0.38823 12.15507,0.2183 18.233,0.2558 0.40189,12.10605 0.49701,28.46622 0.22213,40.57511 -9.43898,-13.01331 -20.82639,-32.3793 -34.82769,-41.08408 1.56992,-0.33381 3.15983,-0.44576 4.75785,-0.45475 0.0953,-5.4e-4 0.19089,-6.9e-4 0.28628,-5.2e-4 z m -47.58632,1.47635 c 0.11642,-1.8e-4 0.23292,1e-4 0.34934,5.2e-4 18.08373,0.55027 36.49647,6.15197 51.016,17.07958 17.86295,18.60001 22.26498,45.48901 24.03213,70.23447 1.44994,30.81703 -5.27125,62.7917 -22.302,88.78683 -9.28554,14.10582 -24.99415,23.55315 -41.97987,24.0838 -16.08944,0.98309 -33.36299,-2.07167 -45.26028,-13.83791 -14.75261,-13.64899 -23.19824,-32.6257 -29.10417,-51.50332 -3.30668,-32.93548 -6.93852,-68.30427 7.63519,-99.21358 7.41381,-13.897 19.89345,-25.15864 34.07958,-31.79186 6.86467,-2.62276 14.19969,-3.82717 21.53408,-3.83853 z m -43.60612,0.21446 c -6.42275,0.12526 -12.84532,0.25043 -19.26807,0.37569 -0.0477,6.62774 -0.0954,13.2558 -0.14315,19.88354 4.3858,-6.93045 19.17715,-17.11071 19.41122,-20.25923 z m 96.1725,0.63463 c -0.93039,-8.3e-4 -1.861,0.0156 -2.79208,0.0553 9.58495,4.3914 21.86327,27.55719 25.51663,29.58401 -0.0562,-8.11265 -0.68837,-20.45699 -0.74457,-28.56964 -6.51872,0.2475 -15.46734,-1.06387 -21.97998,-1.06966 z m -110.13754,1.56369 c 0.0267,0 0.0536,0.001 0.0801,0.004 0.84866,0.0786 1.60285,1.3773 2.32854,1.72909 1.27175,0.6165 2.1146,1.79679 2.1146,1.79679 l -1.10846,3.53984 c 0,0 -6.99528,1.64954 -6.23218,-1.47536 1.0711,-4.38602 1.98947,-5.5942 2.8174,-5.59398 z m 124.88282,2.55023 c 1.55167,0.0101 3.3944,1.03413 4.84415,6.97063 0.7631,3.12492 -6.36241,-0.22066 -6.36241,-0.22066 l -1.7818,-6.22442 c 0,0 0.46186,-0.28197 1.19476,-0.26717 0.50394,0.0102 1.15568,-0.21491 1.88102,-0.2527 0.0499,-0.003 0.0998,-0.004 0.15038,-0.005 0.0245,-3.4e-4 0.0493,-6.8e-4 0.0739,-5.2e-4 z m -63.54444,20.10988 c -19.93897,-0.009 -38.33665,14.72994 -42.95759,34.13745 -6.7139,22.86225 -3.96521,47.35705 0.6811,70.35333 4.2194,16.56272 10.2274,36.41381 27.83499,43.03768 13.31054,8.62696 30.98555,1.26499 40.10608,-10.17147 21.0272,-23.52124 24.92909,-57.3202 21.88548,-87.55538 -1.2103,-13.29603 -3.81906,-27.3782 -14.63269,-36.39777 -8.61117,-8.33565 -20.39011,-13.50354 -32.44609,-13.40074 -0.15718,-0.002 -0.31428,-0.003 -0.47128,-0.003 z m -4.2199,10.41745 c 0.0627,-2.3e-4 0.12575,-1.9e-4 0.18862,0 0.65422,0.002 1.31639,0.0272 1.98592,0.0765 20.06671,-0.59685 40.9675,14.73131 41.57214,35.77662 2.60733,26.36193 2.10966,55.46612 -13.72836,77.95959 -7.5042,10.29909 -19.70562,18.99687 -33.02641,15.74219 -13.02551,-3.49694 -19.07565,-17.89771 -24.56439,-28.99307 -8.8543,-22.8618 -9.46216,-48.47456 -4.35064,-72.25553 4.5817,-14.3066 15.92853,-28.24595 31.92312,-28.30629 z m 2.6324,3.4029 c -16.3897,0.10875 -28.13406,14.95885 -31.32057,29.90773 -8.02377,30.25091 -2.52291,66.59417 21.36975,88.42716 7.63707,8.24056 20.89681,4.76317 27.56628,-2.93729 8.87599,-5.70796 12.6592,-15.62665 15.64194,-25.29871 7.74717,-24.75437 8.3928,-53.07129 -3.74603,-76.53745 -8.43867,-6.89574 -18.19129,-13.50464 -29.51137,-13.56144 z m -1.05627,3.68453 c 1.86778,-0.049 2.7311,-0.27398 3.86699,0.8119 1.26323,1.20764 1.72215,0.4605 -0.20778,3.53097 -2.10896,3.35539 -2.88726,3.56727 -5.05551,1.37563 -2.11978,-2.14267 -1.72004,-3.3925 -0.96841,-4.75526 0.40107,-0.72715 1.00119,-0.92759 2.36471,-0.96325 z m 13.65911,6.45128 c -1.1478,3.03204 -3.83911,8.62467 -4.17545,14.09578 0.57684,3.73088 0.83492,4.7536 2.69079,7.70031 1.31308,-3.43101 2.86452,-6.34636 4.66173,-8.72918 1.28796,-0.1963 4.28576,-0.3273 5.16248,-0.54002 1.2404,1.01326 0.60232,1.21102 1.0573,2.31717 -2.58129,3.19816 -5.43689,9.15744 -7.38508,13.49737 0.59449,3.82605 3.47341,6.63239 5.4963,9.82058 -1.10894,2.97933 -4.54587,6.48431 -5.81411,8.56021 -0.71542,-4.06041 -2.94452,-10.60674 -5.84977,-17.66818 -1.90512,-4.63049 -4.03583,-8.81013 -7.26726,-12.21062 -6.23561,-6.56182 -11.16931,-10.0133 -15.58251,-11.58534 0.85933,-1.50508 4.36476,-4.49652 6.18877,-3.46801 3.24704,1.83098 11.31711,5.23109 11.27218,7.58507 -0.006,0.29396 1.49631,-3.29527 2.6851,-6.60993 0.64564,-1.80019 3.42338,-2.82276 6.85953,-2.76521 z m 8.40673,2.74299 v 5.1e-4 c 0.50572,0.004 0.70266,0.24884 0.58911,0.53227 -0.13993,0.34929 -0.39928,0.31746 0.15709,1.02526 0.45352,0.57702 0.7105,1.11579 0.71624,1.50224 0.014,0.9404 -0.63666,3.17019 -0.96583,3.31039 -0.16294,0.0695 -0.58474,-0.0849 -0.93741,-0.34313 -0.35271,-0.25818 -1.19409,-0.78663 -1.86966,-1.17461 -1.76481,-1.01354 -2.02541,-1.33934 -1.74253,-2.18023 0.32901,-0.97806 1.71479,-2.05869 3.24735,-2.53214 0.27232,-0.0841 0.50577,-0.12698 0.70022,-0.13746 0.0365,-0.002 0.0717,-0.003 0.10542,-0.003 z m -40.52673,7.41867 3.57033,0.14417 c 1.39424,4.2856 7.59279,12.55697 9.75754,16.66875 3.5247,-0.13394 8.43495,0.40227 12.04733,0.80306 1.24283,2.21329 2.77199,6.73582 3.68763,9.06146 -6.69525,-4.61475 -28.13314,-3.50857 -37.82147,-4.04213 0.98816,-2.36653 1.40024,-5.82434 3.30884,-7.55458 3.22387,0.81246 8.49627,1.75401 11.63805,1.44332 -1.88757,-3.01874 -6.93905,-10.26584 -8.10803,-13.27774 0.38839,-1.54343 1.20622,-2.29922 1.91978,-3.24631 z m 50.91059,10.30531 c 1.34412,1.99115 2.16699,6.72307 2.71043,9.21546 -1.67124,2.5653 -7.13163,10.33589 -8.42326,13.67513 l 8.79585,-0.33899 0.74982,3.42098 c -0.32294,1.55317 -0.61872,2.32647 -1.28054,3.22512 -4.18819,-0.22677 -7.31808,-0.58555 -11.50628,0.55811 -2.66012,2.83189 -4.04671,6.50243 -5.77277,9.48831 -2.35061,1.36964 -7.1418,-0.003 -9.52345,-0.20723 l 0.14573,-0.3669 c 6.37249,-3.90577 18.68377,-27.26419 24.10447,-38.66999 z m -40.18721,14.62081 c 1.78247,0.004 4.4838,0.1205 8.62686,0.44339 -6.32532,3.59211 -8.32872,5.88068 -10.52442,9.0289 -5.9792,8.57308 -11.87524,18.52726 -15.56753,26.25266 -2.09602,-2.74872 -2.86537,-5.91621 -2.62465,-9.0103 1.50645,-2.62684 5.16388,-7.01988 6.77944,-10.29343 -3.39509,-0.42272 -5.36148,-0.2993 -8.26617,0.001 -0.64867,-1.07103 -0.79672,-1.80144 -0.7953,-3.06907 l 0.43253,-4.75009 c 4.25192,-0.31896 7.73307,0.89442 11.7905,1.23868 2.55764,-2.89282 3.8807,-5.92419 5.74074,-9.186 1.29667,0.0671 -0.1472,-0.66495 4.408,-0.65578 z m -0.64751,11.68921 c 1.01308,10.7976 11.60782,29.52248 19.33009,40.28385 -2.17076,0.85499 -6.86916,0.36449 -9.36739,-1.89756 -1.4493,-3.06679 -5.99156,-7.83495 -7.94835,-10.84688 -2.46029,2.96391 -3.62483,5.34916 -4.99815,8.43049 -1.32043,1.79212 -3.33192,4.33628 -4.65087,6.75514 -0.88798,-1.11303 -3.24631,-3.38228 -3.47938,-4.49533 2.02656,-4.04182 7.31727,-12.8075 9.17774,-17.74982 0.0141,-3.76754 -1.49476,-9.17745 -3.33365,-12.50725 0.89786,-2.47245 2.60096,-4.57146 4.11499,-6.64869 z m 4.88394,8.76071 2.11253,1.0883 c 6.99474,5.75707 15.8509,6.26285 25.44548,6.53811 2.71726,0.078 8.69631,0.68589 11.21224,0.55913 -0.94036,2.48281 -0.73115,4.05403 -2.48822,6.0632 -2.94684,0.74221 -10.23674,-0.85773 -13.38834,-1.19269 l 7.1267,12.89999 c -0.0109,1.25431 -1.2608,3.34791 -2.14664,4.11861 l -2.48047,1.22111 c -1.71301,-4.4243 -6.30606,-14.26657 -9.48831,-18.46554 -3.44892,-0.037 -7.1472,-1.44952 -11.26391,-2.5864 -1.52242,-2.30965 -3.97913,-7.76944 -4.64106,-10.24382 z m 25.7731,36.30528 c 0.26733,4.2e-4 0.42283,0.026 0.43202,0.061 0.0368,0.13996 -0.54479,1.44119 -1.29243,2.8913 -1.70772,3.31229 -4.29846,6.51131 -5.53609,6.83628 -0.83707,0.2198 -1.06385,-0.19634 -1.95492,-3.58997 l 0.24029,-3.46542 3.61425,-1.65003 c 1.88643,-0.86111 3.69494,-1.08439 4.49688,-1.08313 z m -36.43601,0.51314 c 0.14278,-0.0144 2.10482,1.14116 2.8422,1.60714 2.7935,1.76536 3.70387,1.73944 7.44141,3.02462 3.70596,1.27432 4.13979,1.53194 4.12067,2.44946 h -5.1e-4 c -0.0205,0.98505 -0.95406,3.25753 -1.72755,4.20543 -0.53381,0.65419 -1.16795,0.80362 -2.7435,0.64596 -2.52576,-0.2527 -5.15929,-1.76087 -6.5412,-4.72891 -0.88555,-1.90201 -4.00154,-7.14189 -3.39152,-7.2037 z m 22.44824,8.98447 v 5.1e-4 c 0.51651,0.19419 1.32122,1.32729 1.65416,1.73685 1.34417,4.96028 -2.0728,4.96395 -4.87722,3.43441 -1.76481,-1.01351 -1.1128,-1.65818 -0.82992,-2.49907 0.32901,-0.97806 1.71478,-2.05869 3.24734,-2.53214 0.27232,-0.0841 0.50577,-0.12698 0.70022,-0.13746 0.0365,-0.002 0.0717,-0.003 0.10542,-0.003 z m 65.97065,2.40347 c 0,0 0.23304,14.59241 0.51418,18.67431 0.52428,0.61284 0.23203,30.51958 0.23203,30.51958 l -42.66106,1.70786 c 12.90565,-0.3389 43.67296,-42.53124 41.91485,-50.90175 z m -141.37225,3.30884 c 5.23126,10.1953 9.89333,21.01875 17.79271,29.72325 3.34587,6.37062 22.56569,18.53484 24.13654,16.82377 0,0 -31.61602,0.57944 -42.06361,0.3111 -1.0175,-15.53944 0.0176,-31.27124 0.13436,-46.85812 z m 139.51913,6.73396 c 1.09155,3.73868 -23.65468,38.25384 -30.1488,38.58409 l 29.90334,-1.5207 c 0.47081,-8.99121 0.25329,-36.10853 0.24546,-37.06337 z m -137.0428,3.56825 c 0.13066,11.13194 0.26157,22.26455 0.39223,33.39641 6.92137,-0.28881 23.90035,-0.13384 23.90035,-0.13384 -11.06645,-9.78145 -18.80479,-20.50593 -24.29258,-33.26257 z m 130.55999,17.7276 c 0.0472,-2.6e-4 0.0942,-1.9e-4 0.14056,0 0.80402,0.003 1.4763,0.0743 1.84123,0.0879 0.73255,0.027 1.19476,0.26717 1.19476,0.26717 l -1.55959,8.07289 c 1.4157,1.72345 -5.17504,5.61564 -6.38462,2.21485 -3.22352,-9.06251 1.17425,-10.50575 4.33255,-10.63294 0.14804,-0.006 0.29338,-0.009 0.43511,-0.01 z m -123.59917,0.2372 c 1.30418,-0.0213 2.78858,1.06358 4.09897,5.95881 0.38833,1.45056 -0.95341,2.92972 -0.49816,5.1387 0.75951,3.68531 -6.60744,-1.37586 -6.38462,-2.21485 l -1.09502,-7.82123 c 0,0 0.46186,-0.28196 1.19476,-0.26716 0.60735,0.0123 1.52103,-0.71696 2.5585,-0.7891 0.0417,-0.003 0.0835,-0.004 0.12557,-0.005 z"
     sodipodi:nodetypes="cccccccccccccccccccccscccscscccccccccscsccscccsccsccsccssccsccscccccccccssccccccscccccsccssssscccccscccsscscscccsssccssssccccccccccccccccccccccscsccccccccscccccccccccccscccccscccsssscccscssccssscccccsssccccccccccccccccccccccscccscssccsscscscssccssccs" /><path
     id="path44576"
     style="font-weight:bold;font-size:21.3333px;line-height:0.85;font-family:Kramer;-inkscape-font-specification:'Kramer Bold';text-align:center;letter-spacing:0px;word-spacing:0px;white-space:pre;shape-inside:url(#rect17178-6-6);display:inline;fill:#000000;stroke-width:13.7545"
     inkscape:label="C"
     d="M 192.25131,269.875 C 128.16796,269.87517 64.083324,269.87535 0,269.87552 v 253.98759 c 64.159977,0.004 128.32127,0.008 192.48127,0.0124 -0.0767,-84.66628 -0.15331,-169.33431 -0.22996,-254.00052 z M 9.1575806,277.78976 H 183.10045 c 0.003,79.28952 0.007,158.58072 0.01,237.87024 -57.98181,-0.003 -115.96473,-0.007 -173.9464883,-0.0103 z m 7.9390504,7.58093 c -0.728451,32.70517 -0.789536,65.41223 -0.368453,98.12115 -0.649346,41.0707 1.148434,82.12098 0.98857,123.19041 52.754576,0.0362 105.481452,2.5548 158.239952,1.93993 0.89726,-74.29557 1.53705,-148.60967 0.97048,-222.90732 -53.2765,-0.11472 -106.554069,-0.22945 -159.830549,-0.34417 z m 84.742629,8.34368 c 25.71087,-0.008 50.31473,15.80931 62.45097,38.23126 -5.26056,7.31621 -16.12071,22.76797 -22.60173,9.12916 -16.01855,-16.54181 -42.174249,-24.97965 -63.77801,-14.73295 -15.233321,8.98761 -27.570548,24.14651 -31.211015,41.62278 -3.08361,20.73096 3.57678,41.94364 14.201201,59.58396 20.701217,30.95162 59.092104,45.41046 95.277384,45.0081 -4.06933,10.30399 -9.1787,27.97202 -21.96352,27.58075 C 95.422306,498.86357 56.763097,477.52533 38.963514,442.32907 22.396384,415.02168 15.96434,380.7475 26.33276,350.01274 c 6.379325,-22.75948 25.32277,-40.31558 46.157389,-50.23724 9.216343,-4.05935 19.286489,-6.08407 29.349111,-6.06113 z m 35.88618,5.2e-4 c 10.498,0.0656 20.9962,0.13125 31.4942,0.19688 -0.51924,8.8754 2.0282,24.37476 0.15813,29.22044 -8.07481,-12.13761 -19.84437,-21.16241 -31.65233,-29.41732 z m -77.131722,0.25735 c -16.169253,10.66035 -28.876697,25.93048 -38.915454,42.33695 v -42.08064 c 12.971727,-0.0854 25.943727,-0.17087 38.915454,-0.25631 z m 85.287292,2.30838 c 7.48018,3.51937 18.19082,17.22178 21.34495,17.33434 -0.27933,-5.69264 -0.55885,-11.38538 -0.83819,-17.07802 -6.83552,-0.0854 -13.67117,-0.17088 -20.50676,-0.25632 z m -93.442867,0.51263 c -9.243293,0.0858 -18.48679,0.17157 -27.73009,0.25735 0.716221,7.96597 -0.907376,24.94497 1.070219,27.80709 6.078757,-11.7554 16.456333,-20.05589 26.659871,-28.06444 z m 107.471987,2.19728 c 0.77258,-0.0586 2.87802,1.397 3.55224,2.45567 1.31224,2.06046 -2.55396,4.48317 -4.4943,2.81636 -0.85774,-0.73682 -0.87465,-1.26334 -0.10904,-3.46749 0.33843,-0.97425 0.81146,-1.78637 1.0511,-1.80454 z m -119.284186,1.00769 c 0.739413,7.3e-4 1.225635,0.0504 1.26969,0.16537 0.04798,0.12519 -0.742272,0.84455 -1.755965,1.59835 -1.013664,0.75379 -3.242621,2.85139 -4.953186,4.66122 -1.710547,1.80981 -3.408576,3.40464 -3.773413,3.54448 -1.516917,0.58145 -4.50461,-3.5713 -3.714502,-5.16299 0.147953,-0.29797 0.78014,-1.12236 1.404565,-1.83193 0.624409,-0.70954 1.882073,-1.59452 2.795179,-1.96681 1.17374,-0.47852 6.104859,-0.98883 8.57622,-1.00717 0.05149,-3.8e-4 0.102118,-5.6e-4 0.151412,-5.2e-4 z m 61.254656,31.12834 c 13.01592,-0.008 25.17269,6.72809 33.07498,16.98139 5.65595,4.27906 10.22295,18.81357 16.62121,8.03827 5.50441,-3.8384 15.38266,-16.85201 19.47478,-14.05909 0.45953,34.75753 1.14777,69.50943 0.96583,104.27115 0.55081,17.97639 -0.37115,35.95002 -0.41289,53.92591 -5.84116,-0.0906 -11.68239,-0.18121 -17.52348,-0.27182 4.42259,-11.91108 14.1572,-22.2 13.47618,-35.63968 -19.99706,1.1526 -40.97846,1.74803 -59.33746,-7.63675 -19.935087,-9.96274 -40.542145,-24.29558 -48.092154,-46.27417 -6.741637,-19.18841 -9.386673,-42.21449 2.599842,-59.94828 7.895833,-12.79819 22.462284,-19.53112 37.247855,-19.33732 0.429007,-0.022 0.857267,-0.0366 1.284667,-0.0439 0.20703,-0.004 0.41404,-0.006 0.62064,-0.006 z m -2.148186,3.88761 c -19.774997,0.006 -38.822302,15.40799 -40.456445,35.63711 -2.411266,22.47319 4.140155,47.05985 21.383707,62.46698 22.442754,21.77656 56.232314,31.52894 86.788494,25.00158 0.84956,-36.56094 -0.94891,-73.13107 0.33487,-109.69046 -6.20401,-0.66183 -16.60714,17.56842 -23.97322,15.5546 -10.22067,-12.04722 -20.43172,-27.22066 -37.69847,-28.63391 -1.80322,-0.2218 -3.62033,-0.32458 -5.43688,-0.32453 -0.31419,-0.008 -0.62817,-0.0115 -0.942056,-0.0114 z m 8.464076,5.25757 c 0.26353,-0.004 0.53753,0.0267 0.82011,0.0961 2.18563,0.53682 2.28525,-0.67889 4.10259,2.49649 1.78375,3.11665 1.49118,4.0879 -1.54409,5.12579 -3.16135,1.08097 -6.08055,1.04679 -6.77478,-0.22118 -1.42332,-2.5996 0.28655,-7.45104 3.39617,-7.49721 z m 11.3497,9.18858 c 0.0316,3.8e-4 0.0631,0.002 0.0951,0.005 3.07009,0.26888 5.32018,0.98062 -1.33842,9.45472 -2.29562,4.71903 -4.82895,10.94715 -5.62963,13.83998 l -1.45624,5.25963 2.47995,0.33073 c 1.36384,0.18195 4.36737,-0.27757 6.67453,-1.02113 l 4.19509,-1.35185 3.1657,-6.50658 c 3.40534,-6.99847 4.82102,-8.21303 7.07502,-6.06992 1.0659,1.01345 0.90168,1.64943 -1.9234,7.45536 -1.69861,3.49107 -2.89957,6.43914 -2.66857,6.55154 0.23099,0.1124 3.33434,0.28824 6.89622,0.39067 6.8574,0.19714 7.73154,0.61827 9.56634,4.60696 l 1.14309,2.48512 -3.45096,-0.62787 c -1.89783,-0.34509 -9.61638,-2.02645 -17.06924,-1.39113 -7.27316,-0.66244 -17.36723,-0.52743 -21.24986,3.95325 -2.65401,2.14284 -6.713543,6.53876 -9.492959,8.59224 5.313449,1.58643 5.651679,1.09487 11.539859,4.29379 1.26718,0.68831 8.85554,5.49115 8.86974,6.50968 -2.10751,4.27238 -3.08208,2.75449 -4.74854,2.23759 -4.4506,-2.60682 -7.11987,-5.00713 -12.250415,-6.16551 -3.565518,-1.10387 -11.532576,-0.51531 -14.336075,0.91415 -0.948026,0.33626 -2.787266,1.71457 -3.004985,1.77457 -1.532856,1.03785 -1.722658,1.98846 -3.710885,3.29334 9.618965,16.90718 9.79477,11.56216 20.12177,14.24409 3.99934,0.23895 6.73255,0.69874 9.55652,1.06867 2.3599,-0.7311 4.97391,-2.44087 8.30905,-5.41672 1.81199,-1.61679 3.78519,-3.20215 4.38526,-3.5233 1.03106,-0.55181 1.07138,-0.47981 0.73588,1.30896 -0.21212,1.13064 2.5202,1.83701 2.86855,2.25671 0.45511,0.54841 -2.63282,1.41433 -4.6793,2.7404 -2.44436,1.5839 -5.03667,4.20611 -4.59507,4.64778 0.49903,0.49903 9.22129,3.3293 10.28878,3.3383 3.21968,0.0278 9.95955,-4.59029 18.87379,-12.93255 8.06977,-7.55203 10.05786,-8.7245 16.51372,-9.73687 3.08097,-0.48316 3.19099,-0.36862 2.10736,2.1916 -0.93196,2.20189 -2.1148,3.15682 -5.36505,4.33255 -2.72579,0.98605 -7.67291,5.39737 -7.67291,6.84196 0,0.73822 4.3567,3.90679 7.07398,5.14491 l 1.41542,0.64492 -1.86345,1.53582 c -1.05985,0.87362 -1.86345,2.01824 -1.86345,2.65462 0,1.07357 -0.0588,1.06267 -1.45521,-0.26975 -1.90097,-1.81387 -6.84997,-4.09302 -8.86354,-4.08192 -2.35043,0.0129 -5.14637,1.51307 -8.20105,4.40025 -1.49387,1.41188 -2.641,2.62916 -2.5492,2.70526 0.0918,0.0761 1.76539,0.89361 3.71915,1.81642 1.95376,0.92279 4.28265,2.29196 5.17488,3.04271 1.35651,1.14141 1.51287,1.49711 0.95446,2.16989 -0.36729,0.44257 -0.66817,2.15074 -0.66817,3.79616 v 2.99154 l -5.56504,-3.75429 c -7.84938,-5.29549 -18.92115,-10.38999 -28.27941,-13.10307 -4.19168,-0.17453 -7.63168,0.32151 -14.711757,-1.30742 5.336227,10.85583 20.824797,6.68147 11.983757,15.38149 -11.101239,-5.25353 -20.235523,-12.78447 -27.266382,-21.41995 -6.748237,-8.28836 -11.558752,-17.59424 -14.310885,-26.88063 -2.092056,-7.05913 -2.462425,-18.9285 0.740126,-29.37893 3.831967,-12.50432 13.570535,-24.0658 21.534468,-25.03062 l -3.581517,7.75907 c 0,0 -7.310024,8.80623 -7.781065,10.47345 -1.317494,4.66313 -8.194991,11.54142 -5.782544,23.35943 4.372001,0.97292 16.618251,-8.07325 22.883171,-13.188 0,0 0.263135,2.67223 0.963927,3.34113 1.009785,2.30641 -0.579053,4.08058 -0.579053,4.08058 0,0 -6.813715,4.70695 -10.740737,7.49223 -3.420149,2.3434 -11.559454,5.37822 -11.083115,8.88486 -1.415988,4.10718 1.290414,6.81149 3.220528,8.93423 8.43112,-5.75517 21.199876,-12.90795 30.260708,-23.06631 0.15301,-0.47325 0.31406,-0.9603 0.48369,-1.45935 3.22693,-9.49411 3.06323,-11.43345 -1.55288,-18.38182 -1.45764,-2.19411 -6.612993,-5.18476 -5.434291,-6.01669 2.877921,-2.03124 2.294041,-2.76623 4.200771,-2.85047 1.24173,-0.0549 2.29518,1.00645 4.93097,4.93613 1.84337,2.74826 3.65762,5.32968 4.03179,5.7366 0.51366,0.5586 1.40217,-0.74377 3.62717,-5.31647 2.23604,-4.59537 3.08112,-5.87898 4.02043,-5.94847 v -5.2e-4 c 0.0313,-0.002 0.063,-0.003 0.0946,-0.003 z m -32.675006,4.3894 c 0.662291,0.009 1.546483,0.55424 3.357417,1.73736 3.250197,2.12341 3.519446,3.09781 1.420586,5.14439 -2.18602,2.13155 -4.710292,3.09104 -6.058545,2.30322 -2.131805,-1.24568 -2.314948,-6.07575 -0.309542,-8.16178 0.64475,-0.67067 1.041324,-1.03079 1.590084,-1.02319 z m 71.763056,9.75496 c 0.34171,5e-5 0.59431,0.049 0.71675,0.15606 0.72147,0.6308 0.8199,5.73358 0.13229,6.85695 -1.62215,2.6502 -10.40791,5.23991 -11.25202,3.31659 -0.46321,-1.05542 1.72968,-5.76974 3.8225,-7.9344 1.21702,-1.25876 4.93407,-2.39545 6.58048,-2.3952 z m -41.58609,24.3737 c 0.18271,0.005 0.30127,0.25507 0.30127,0.8382 0,0.26356 0.53753,0.0267 0.82011,0.0961 2.18563,0.53682 2.12243,-0.57996 4.10259,2.49649 2.37746,3.69374 0.53416,2.41875 -2.50114,3.45664 -3.16134,1.08099 -3.66677,1.06333 -4.36097,-0.20464 -1.15645,-2.11217 0.84639,-6.70345 1.63814,-6.6828 z m 38.32117,3.20343 c 0.90363,-0.0118 1.4145,0.36551 1.89808,1.10691 0.93806,1.4381 1.98835,5.88401 1.61799,6.84919 -0.14645,0.38159 -1.30023,1.34804 -2.56419,2.14767 -2.5572,1.6178 -5.19194,1.84659 -8.33489,0.72347 -3.05681,-1.09235 -5.53583,-2.83494 -8.11682,-5.70559 -3.2083,-3.56842 -0.33192,-5.28213 2.75746,-3.68453 2.57868,1.33348 3.06071,2.00267 7.62641,0.13694 2.56333,-1.0475 4.09185,-1.56064 5.11596,-1.57406 z m -23.94117,10.94403 c 0.22496,6.6e-4 0.37362,0.26642 0.37362,0.89814 3.6439,4.23709 3.47281,0.0961 4.9227,2.5926 1.78372,3.11665 1.4912,4.0879 -1.5441,5.12579 -3.16132,1.08097 -4.86357,-1.20165 -5.5578,-2.46962 -1.13418,-2.07155 0.92302,-6.1495 1.80558,-6.14691 z m -31.813558,5.41207 c 0.234193,5.3e-4 0.462808,0.0111 0.683158,0.0331 1.98057,0.19722 6.45025,2.80908 6.29005,3.67522 -0.1622,0.87723 -4.31897,4.63152 -5.58518,4.77284 -2.987388,0.33339 -9.47488,-4.52789 -8.308536,-6.22598 0.590018,-0.85903 4.157049,-2.26137 6.920508,-2.25516 z m 62.871088,28.24634 c 0.32198,0.027 0.42808,2.45595 0.43874,9.02994 l 0.0165,9.92188 -6.17171,1.99109 -12.37237,-0.96015 7.01404,-4.39663 c 2.94294,-1.84494 3.77917,-4.67911 5.42447,-7.41143 1.00763,-1.67336 2.51818,-3.92163 3.3569,-4.99608 0.83879,-1.07442 1.79327,-2.43014 2.12081,-3.01222 0.0573,-0.10177 0.10937,-0.1588 0.15709,-0.16588 0.005,-7.8e-4 0.0104,-9.5e-4 0.0155,-5.2e-4 z m -43.35859,1.34876 c 0.70337,-0.0106 1.09108,0.72217 2.11357,2.90525 1.45976,3.11659 1.47735,5.23304 -1.00666,6.27093 -2.58715,1.08097 -5.15422,-0.15654 -5.80171,-1.36632 -1.02378,-1.91295 1.01814,-6.29288 3.45043,-7.4011 0.53931,-0.24573 0.92466,-0.40396 1.24437,-0.40876 z m -94.740981,0.2992 c 10.365085,13.25558 18.702385,28.16006 30.224511,40.45231 10.620134,9.58688 23.49064,16.28708 36.569861,21.86689 -21.846421,-0.4263 -43.693247,-0.8527 -65.539668,-1.279 -0.453213,-20.40682 -0.280439,-40.90871 -1.254704,-61.0402 z m 0.727087,3.83026 0.459404,14.82183 z m 2.183846,6.22753 c -0.05558,0.0556 0.13224,10.54031 0.417029,23.29935 0.284787,12.75904 0.523573,23.63891 0.530717,24.17734 l 0.01292,0.97875 18.054195,0.35605 c 9.92971,0.19571 21.253176,0.3841 25.163322,0.41858 l 7.109127,0.0625 -4.386296,-2.41174 c -10.273708,-5.64811 -18.312878,-11.45052 -24.617619,-17.7684 -4.566826,-4.57633 -7.231589,-7.99024 -16.444475,-21.06848 -3.155804,-4.47984 -5.783334,-8.09954 -5.83892,-8.04395 z m 2.631881,7.65896 14.398087,20.25768 c 6.796428,7.11593 14.303387,13.74024 22.095293,19.43034 l -1.832447,0.32918 c -3.077132,0.55329 -3.659445,-0.0978 -6.816638,-0.26614 -1.343576,-0.82513 -4.380191,-3.53077 -6.006868,-4.80177 -4.349622,-3.39862 -6.832958,-6.20586 -8.121985,-6.87245 -1.034769,-0.53509 -1.357451,-0.62052 -1.574581,0.36122 -0.785058,3.54927 -1.110003,4.34821 -2.088762,6.8001 -1.686095,4.22378 -1.859562,3.9672 -3.980118,3.9672 -0.994047,0 -4.453475,-0.1575 -4.453475,-0.34985 0,-0.19232 0.306228,-1.13215 0.680578,-2.08824 1.041807,-2.66086 4.546486,-11.57318 4.555278,-14.42496 0.007,-2.29137 -0.131489,-2.78781 -1.404049,-5.0338 -0.776466,-1.37039 -1.3816,-3.43629 -2.376599,-4.56252 -3.229072,-3.65495 -2.608364,-4.05361 -2.869592,-8.93382 z m 139.224567,20.50418 c -3.54834,7.26426 -7.09693,14.52872 -10.64534,21.79298 3.11593,-1.03048 10.07632,1.74611 10.21178,-2.23604 z"
     sodipodi:nodetypes="cccccccccccccccccccccccccccccccccccccccccsccscssscsssssssscscccccccccccssccscccccccsscscscccsccccscsssccccccccccccccsssssscssssssccssssssssscscccsssccsccsccccccccssssccscssssssssssssssssssssssssssssccsssscssssscccccscsscsssssscccccccccsscccccssscccccssssssssssscccccsssscccc" /><path
     id="path60736"
     style="font-weight:bold;font-size:21.3333px;line-height:0.85;font-family:Kramer;-inkscape-font-specification:'Kramer Bold';text-align:center;letter-spacing:0px;word-spacing:0px;white-space:pre;shape-inside:url(#rect17178-6-6);display:inline;fill:#000000;stroke-width:2.91393"
     inkscape:label="X"
     d="M 632.42238,5.1677e-4 440.17106,0.00103353 V 253.70338 c 64.08525,0.003 128.17127,0.007 192.25648,0.01 -0.002,-84.5706 -0.003,-169.142058 -0.005,-253.71267323 z M 449.32916,7.9152791 h 173.94235 c 0.003,79.2897619 0.007,158.5804709 0.01,237.8702309 -57.98192,-0.003 -115.96457,-0.007 -173.94649,-0.0103 z m 4.75991,4.5738809 1.83193,227.01973 c 54.46986,0.0901 108.94036,0.18018 163.41018,0.27027 L 617.9261,12.55634 C 563.314,12.53395 508.70121,12.51155 454.08907,12.48916 Z m 153.82007,7.414535 c 0,0 -0.0313,10.52261 -0.15348,10.909928 -0.421,32.331605 -15.6447,63.369014 -37.7579,86.458287 -2.06497,3.12037 -6.71173,6.53914 -6.71173,6.53914 0,0 -2.95385,-2.93907 -4.32997,-7.17011 -2.72694,-4.79452 -5.45396,-9.58905 -8.1809,-14.38362 20.23333,-21.236244 30.59929,-38.809351 32.2802,-64.789323 0.36346,-5.009708 0.59617,-12.31949 0.41703,-17.315222 z m -34.26767,0.375171 c 0.78437,14.414999 -1.17891,29.131199 -5.22449,42.973087 -3.95756,11.215105 -12.32545,25.56137 -22.8601,29.817819 C 530.09827,71.111239 518.43187,45.620828 506.88482,21.486544 Z m -77.12811,1.068152 c 0,0 7.75033,16.419755 11.95637,26.128637 13.90934,29.514489 31.85815,56.876095 47.39401,85.423205 18.56759,32.793 37.13547,65.58653 55.70306,98.37953 -10.6615,-0.002 -21.32311,-0.005 -31.98461,-0.007 -15.64746,-27.52664 -29.95428,-55.81533 -46.23645,-82.98356 -12.24512,2.89867 -18.96266,14.77771 -27.1663,23.24922 -13.02809,17.37629 -18.62318,39.51822 -19.04432,60.9875 -7.59226,-0.099 -15.18464,-0.19809 -22.7769,-0.29714 -0.17441,-42.07101 20.85714,-83.61293 54.57599,-108.68743 -17.42583,-34.609261 -38.24629,-67.392404 -55.92578,-101.869985 9.2891,-0.118529 33.50493,-0.322977 33.50493,-0.322977 z m 75.26259,1.455725 -60.53222,0.98857 c 9.57598,23.098278 20.99653,45.568087 35.56888,65.942228 20.842,-15.008529 24.23153,-43.162649 24.96334,-66.930798 z m -3.05046,2.004528 h 10e-4 c -3.8e-4,9e-5 -8e-4,4.14e-4 -10e-4,5.17e-4 -1.65091,17.542566 -9.64739,15.692319 -20.05149,31.807361 l 0.12919,-0.115238 c -4.40912,5.192672 -3.493,7.774374 -1.81953,12.20804 l -0.11885,-0.243396 1.95698,5.278231 c 5.55654,-4.297952 6.06058,-9.178268 6.35104,-7.881173 0.56026,2.501833 1.77183,1.402846 5.52214,0.868164 -1.18967,3.99077 -10.24383,9.90563 -10.14098,16.040365 0.0443,2.640556 -4.10894,3.074701 -4.03542,4.35529 -3.79164,-16.613724 -10.57211,-30.910592 -20.10058,-42.358655 3.27241,2.168199 8.43433,1.519296 9.05733,-0.473873 0.91212,1.11616 3.16547,2.333335 6.51692,11.025683 l 3.53776,-4.164603 -0.0858,0.05994 c 4.20092,-3.096054 3.75486,-8.458444 2.08876,-10.908894 -1.72421,-4.655265 -5.09839,-6.051827 -5.09839,-6.051827 3.25731,0.161902 3.00332,0.171339 6.46834,-4.256588 1.96288,4.802553 3.84094,6.988895 5.54126,9.118823 11.74423,-7.536626 2.67929,-11.510692 14.28078,-14.307654 h 5.2e-4 z m -33.55144,0.04444 c 0,0 -9.45144,3.320279 -13.13874,7.90236 l -2.79569,4.984192 c -2.3003,-4.018386 -4.12476,-8.076238 -5.27668,-12.189437 6.73517,0.336272 18.24413,-0.288935 21.21111,-0.697115 z m 7.33185,0.734322 c 1.04592,-0.01678 2.60321,0.893703 3.39411,2.075326 0.2531,0.378154 0.35769,0.763985 0.32659,1.143599 -0.0935,1.138739 -1.41124,2.224437 -3.62148,2.901115 0,0 -1.55303,-0.169265 -2.07068,-0.728121 -0.1181,-0.13076 -2.24318,-1.336756 -2.22053,-1.509985 0.12073,-0.923233 0.4212,-4.259466 3.4618,-3.635437 0.24233,0.04973 0.43733,-0.241799 0.73019,-0.246497 z m -10.30997,10.426239 c 0,0 0.0195,1.250441 0.46096,1.919263 0.1001,0.156066 0.14294,0.320733 0.0899,0.496611 -0.28351,0.937729 -1.2558,3.99567 -2.26136,4.631758 -1.00553,0.636002 -4.09466,-0.803331 -4.88601,-2.547131 -0.79139,-1.743874 1.0287,-3.992619 4.24263,-4.423503 z m -70.43652,4.86482 c 15.78713,26.300158 31.39356,52.721219 46.00649,79.696428 -19.62795,18.10839 -33.24111,41.8364 -45.84423,67.1375 z m 2.41897,8.422225 c 0.2735,39.577874 0.0567,88.279443 0.33021,127.857313 7.64217,-13.99711 16.46364,-33.90377 40.14019,-57.37376 -13.903,-23.180887 -27.2179,-50.209965 -40.4704,-70.483553 z m 1.66243,6.240962 c 0,0 2.41149,4.505276 4.42767,8.457151 6.81838,11.116524 13.72469,25.984112 21.2368,38.78251 -2.66268,-0.12148 -8.27793,-4.901676 -8.27793,-4.901676 -2.20009,-3.139722 -3.5315,-5.72751 -5.62085,-8.941573 -2.21383,4.003773 -4.06538,10.096541 -4.06538,10.096541 -1.32545,1.977568 -6.00933,5.884298 -6.05751,5.671488 0.5907,-7.416314 4.1171,-14.802743 4.66844,-22.141284 0,0 0.5738,-2.367339 0.0186,-3.567224 -0.30257,-0.954831 -1.70683,-3.089062 -1.757,-3.301607 -1.10333,-1.831487 -4.57285,-6.8771 -4.57285,-6.8771 -0.39801,-6.305603 -0.026,-11.392728 -0.026,-11.392728 z m 92.56489,1.839681 c 0.44608,-0.0036 1.51033,0.478538 1.92133,0.592729 0.43843,0.121828 1.75127,1.361467 1.97508,1.669666 0.67126,0.924578 -0.86701,2.951333 -2.1022,4.905126 0,0 -1.288,0.883808 -2.04484,0.797368 -0.1748,-0.02219 -0.32132,-0.09104 -0.41702,-0.237195 -0.51019,-0.778873 -2.1452,-3.353261 -1.99523,-4.474145 0.11489,-0.858156 1.20568,-3.241716 2.66288,-3.253549 z m 52.87171,16.331303 c 0.31141,46.109217 0.59097,92.239857 0.97875,138.361067 -13.16408,-22.97025 -26.99472,-45.57511 -39.58104,-68.86867 -2.83503,-2.98929 -4.58112,-8.94984 -4.58112,-8.94984 0,0 11.8401,-9.9575 15.51533,-15.75253 12.2779,-12.79043 21.21084,-28.354004 27.66808,-44.790027 z m -2.32595,11.590507 c -6.6476,20.26718 -23.46505,34.42384 -37.37705,49.71944 11.19512,22.97316 24.57933,44.76831 38.10052,66.42231 z m -2.65772,13.608472 c 0.67294,1.975708 0.69471,5.031228 0.28939,7.078638 -0.37869,1.91283 -1.74361,3.36943 -3.02824,4.83639 -0.0792,0.81643 -1.20336,2.22067 -1.62833,3.02928 -1.72364,2.46421 -0.70922,12.45087 0.23513,15.09468 1.50178,2.61235 5.04879,11.86491 5.04879,11.86491 0,0 -3.83177,-0.49141 -4.69842,-1.64899 -2.21984,-2.17733 -4.038,-5.80068 -4.038,-5.80068 -2.21736,-4.12623 -1.62794,-6.81533 -2.97243,-10.76524 -2.94779,2.73203 -7.68044,9.52736 -10.621,10.83053 l -7.79777,0.37717 c 10.13154,-6.97897 21.5997,-21.93484 28.30602,-33.30919 h 5.2e-4 z m -116.48747,7.178888 c 0.92285,0.0127 1.70138,0.30799 2.17868,1.07228 0,0 2.87624,5.24689 0.78548,5.98052 0.46686,0.56304 -4.25893,3.19885 -4.6917,3.10886 -1.25206,-0.26037 -6.70252,-0.73487 -8.12353,-1.80816 -7.25968,-4.25177 -9.15866,-8.116 -7.7971,-7.34956 3.82115,2.15097 6.71268,2.19867 9.60525,0.41665 0.0234,-0.001 0.0479,-0.002 0.0718,-0.002 h 5.2e-4 c 1.13517,-0.0104 5.20247,-1.45652 7.97057,-1.41852 z M 467.25933,110 c 0,0 3.46961,2.92529 4.41989,4.19458 2.434,2.38743 3.66347,6.88252 3.66347,6.88252 1.47281,4.88147 1.71758,8.35859 3.19175,12.6896 1.91753,-3.78489 8.42234,-11.09916 12.35083,-12.10539 l 9.11986,-1.99419 c -10.41802,5.93316 -23.62015,25.97344 -31.48076,36.9259 h -5.2e-4 c -0.73787,-2.16631 -1.17916,-4.69019 -0.73473,-6.93517 0.41524,-2.09737 1.33791,-2.7806 2.7465,-4.3892 0.0868,-0.20039 1.845,-2.05375 2.31097,-2.94039 1.88992,-2.70207 1.29798,-6.19294 0.26251,-9.09195 C 473.00814,132.7565 467.25933,110 467.25933,110 Z m 118.97794,27.68709 c 1.50752,-7e-5 5.36582,0.004 6.58235,0.92254 6.62937,3.88256 8.83721,9.16242 7.59386,8.46253 -3.48939,-1.96422 -6.60344,-2.79214 -9.24492,-1.16479 -0.0216,0.001 -0.0436,0.002 -0.0656,0.002 -1.03603,0.009 -2.76157,1.10916 -5.28973,1.07446 l -1.10488,-0.18885 c -0.84273,-0.0116 -1.67613,-0.99245 -2.11199,-1.69039 0,0 -3.38858,-4.63706 -1.47935,-5.30699 2.61382,-2.78019 3.62139,-1.63749 5.12026,-2.11051 z m 19.77173,11.31622 c 0.009,-0.001 0.0152,0.001 0.0165,0.007 -0.54233,6.80911 -3.1328,13.52463 -3.63906,20.26233 0,0 -0.52719,2.17359 -0.0176,3.27525 0.2778,0.87666 0.92029,2.90235 0.96635,3.09749 1.013,1.68155 4.1982,6.31382 4.1982,6.31382 0.36542,5.78938 -0.20228,10.06032 -0.20228,10.06032 0,0 -2.85143,-4.03875 -4.70254,-7.66708 -6.08102,-10.24115 -12.14158,-22.61334 -20.89671,-34.00319 -1.49144,-1.94026 9.83868,4.92838 9.83868,4.92838 2.01991,2.88267 3.24216,5.25894 5.1604,8.20983 2.03258,-3.67594 3.73259,-9.27023 3.73259,-9.27023 1.1789,-1.75892 5.25178,-5.17968 5.5454,-5.21415 z m -77.62472,13.31753 c 14.11327,22.67089 27.45744,45.82947 39.49578,69.67378 l -68.49453,1.00614 c -1.99911,-10.65464 0.8162,-21.45789 2.57866,-31.92363 5.05153,-14.99174 13.75692,-29.0433 26.42009,-38.75629 z m 0.47284,6.25026 c -17.95358,11.78192 -24.71493,34.41082 -25.74778,54.81991 -0.77364,2.61527 0.78379,5.13997 2.18591,5.24878 19.22572,0.68279 40.12851,0.39707 57.34689,0.39894 -11.35782,-20.10181 -22.61996,-40.25823 -33.78502,-60.46763 z m -3.34398,8.46305 c 1.99116,3.16414 19.54348,38.46822 29.35893,48.24822 -5.482,0.45856 -6.48218,1.50635 -9.39374,-0.74001 -3.02813,-4.89267 -8.24974,-15.04909 -12.14965,-16.17368 -1.76356,3.92589 -5.49683,16.23174 -9.39942,19.07635 -1.00641,0.15209 -6.68555,-0.96419 -8.3814,-0.93018 5.46334,-5.65789 13.61927,-24.30636 10.9833,-32.382 -3.69635,-6.55753 -4.78413,-8.4619 -5.37589,-10.1415 -0.83335,-3.63737 0.43395,-3.91913 4.35787,-6.9572 z m -9.19679,14.41646 c 3.25363,0.0369 4.10914,8.94908 4.00752,10.53998 -2.98433,7.34599 -6.37197,6.6961 -10.43828,18.29577 -0.088,-17.34361 2.66113,-22.14364 6.43076,-28.83575 z"
     sodipodi:nodetypes="cccccccccccccccccccccccccccccccccccccccccccccccccccccscsccccccccccccccscccsccccssscccsscccccccccccsccccccccccssccccssccccccccsccsccccccccccccsccscscssscccscccccccccscscccccccsccccccccccscccccccccccccccccccccccccccc" /><path
     id="path2286"
     style="font-weight:bold;font-size:21.3333px;line-height:0.85;font-family:Kramer;-inkscape-font-specification:'Kramer Bold';text-align:center;letter-spacing:0px;word-spacing:0px;white-space:pre;shape-inside:url(#rect17178-6-6);display:inline;fill:#000000;stroke-width:2.91393"
     inkscape:label="I"
     d="M 412.2291,0 219.97778,5.1677e-4 V 253.70286 l 192.25648,0.01 z M 229.13536,7.9147623 h 173.94287 l 0.005,237.8702377 -173.94649,-0.01 z m 4.5775,3.9780517 0.10077,229.403566 164.69331,0.524 1.06143,-229.675385 z m 70.83702,7.47913 22.95364,0.449585 0.005,213.528571 c -15.26232,2.6e-4 -22.89214,0.54208 -22.89214,0.54208 z m -66.2621,0.218075 62.33728,0.230994 -0.42272,161.344157 c 0,0 -23.68189,-19.7015 -37.85712,-36.0531 C 233.7138,112.08428 238.28778,19.590019 238.28778,19.590019 Z m 93.77463,0.198954 62.46286,0.08062 c 0,0 0.0501,9.793853 -0.60462,21.616769 -7.03694,2.428244 -17.89618,8.820857 -23.90965,12.159981 -8.77272,4.87124 -38.36303,35.925456 -38.36303,35.925456 z m -90.80117,1.904793 c 0,0 -3.23626,88.748234 21.85034,119.095574 11.79767,14.27127 34.40669,34.57825 34.40669,34.57825 l 0.54415,-153.234057 z m 93.66302,1.527039 -0.29766,58.509607 c 0,0 27.57153,-26.849543 32.07039,-30.771765 2.02126,-1.762146 15.84538,-9.064518 23.87555,-11.704712 1.06734,-10.665638 0.38189,-15.897738 0.38189,-15.897738 z m -72.61418,0.994255 c -1.3099,3.124192 -4.87301,1.987262 -6.82335,5.775874 -2.40786,4.677262 -5.51524,8.464341 -8.06463,18.003553 -0.76151,1.750716 -1.38517,6.442919 -2.25206,8.492505 L 244.13858,24.71167 c 0.7925,-0.29609 2.50901,-0.401066 4.51756,-0.403076 0.0648,-6e-5 0.12999,3.57e-4 0.19533,5.17e-4 4.60264,0.01 13.45861,-0.09405 13.45861,-0.09405 z m 22.51232,0.06666 c 0.0908,8.4e-4 0.18368,0.0028 0.27854,0.0098 l 2.44998,0.15813 -0.0481,4.344437 c 0.20895,6.199387 5.25456,20.75004 4.28966,41.94421 0.0824,0.035 0.16514,0.07065 0.24753,0.105937 -0.0716,0.054 -0.14334,0.107707 -0.21497,0.161747 0.005,0.0437 0.0103,0.08807 0.0155,0.131775 -0.0404,-0.0162 -0.082,-0.03499 -0.12247,-0.05219 -0.36883,3.379662 0.95423,5.648138 -0.76895,6.946346 -1.97001,-0.837248 -8.34047,-4.726257 -10.31048,-5.563485 -2.61168,-1.620236 -6.70135,-1.917868 -9.76685,1.072286 -2.84893,1.599146 -14.11981,10.84893 -17.4737,12.044108 -1.21367,-0.668758 -2.75332,-3.826861 -2.3863,-5.684977 -0.005,-1.835906 2.96702,-4.172949 4.39707,-4.942279 3.02628,-2.278714 10.13096,-6.829656 13.15713,-9.108372 -2.92974,-3.885267 -10.03172,-10.056065 -13.50038,-12.687659 -1.50646,-1.863288 2.4237,-5.926429 2.00989,-8.158905 8.85722,5.690328 8.41768,8.350391 18.05479,14.516213 2.48406,0.985381 9.8477,4.549177 9.60422,2.557971 0.51821,-3.145819 -0.12389,-12.402668 -7.43107,-13.003857 -2.80938,-1.667776 -10.58845,-6.529674 -13.30048,-8.83667 0.50488,-3.498844 3.3937,-3.134306 5.90197,-3.576526 3.48653,1.481458 8.56023,5.079899 12.04681,6.561357 -0.24115,-4.319952 -2.15588,-10.02969 -1.61127,-14.349512 0.8337,-2.166466 1.66686,-4.616821 4.48189,-4.589901 z m 52.50688,0.639238 h 5.1e-4 c 12.20896,6.285626 24.41827,12.571102 36.62722,18.85673 -2.32933,1.295718 -4.84977,3.887831 -7.75043,2.661853 -3.52164,-1.515368 -6.76959,-3.598015 -10.23606,-5.234823 0.22016,4.569762 1.47397,8.392666 0.0429,13.833264 -0.30776,1.170748 -1.35951,2.319908 -2.53783,2.597258 -0.84611,0.19901 -2.11978,-0.107749 -2.46342,-0.856279 -0.69926,-1.523166 -0.52709,-5.937922 -0.63303,-8.121468 -0.0706,-1.100558 -0.12174,-3.214617 -0.20413,-3.697965 -0.10207,-3.076684 -0.83375,-6.540999 -3.58427,-8.359697 -0.75915,-0.653428 -3.07541,-1.731193 -3.22978,-1.885673 -1.90108,-0.978568 -3.78244,-1.243518 -4.93923,-3.041674 -1.23818,-1.924678 -0.98276,-4.465592 -1.09244,-6.751526 z m 29.04318,1.721858 c 0,0 16.2348,0.229994 19.90577,0.211874 h 10e-4 c 0.52351,-0.003 0.85632,0.0099 0.93328,0.04134 0.61619,0.25434 -0.003,7.936466 -0.003,7.936466 -10.39465,2.170213 -12.19975,-3.393619 -20.83698,-8.189681 z m -27.54302,22.693189 c 0,0 9.26032,12.267535 4.92787,17.752405 -1.70249,2.155336 -4.88187,6.126757 -4.88187,6.126757 z m 56.31801,2.018481 -1.22318,182.536664 -62.21015,0.15813 c 0,0 -1.01595,-112.27081 14.62443,-139.060248 8.72679,-14.94759 22.44425,-28.104206 48.8089,-43.634546 z m -9.15706,0.124541 -11.50369,5.641516 -12.0928,9.554455 2.66547,-3.758943 c -0.20703,0.139468 -0.3913,0.242186 -0.55036,0.300756 l 0.55036,-0.300756 c 2.13473,-1.436898 6.75421,-6.821693 12.50414,-8.932789 6.3077,-2.315894 8.42688,-2.504239 8.42688,-2.504239 z m 6.77736,5.633764 c -19.83463,13.473224 -33.92135,19.753481 -43.24852,39.083403 -9.12976,18.921326 -12.00211,49.619916 -13.52321,76.783946 -1.74724,31.20462 -1.39578,57.82231 -1.39578,57.82231 l 56.73814,0.81545 z m -139.57959,2.699577 h 5.2e-4 c 1.51262,-0.01261 3.49066,1.676733 5.39967,4.733561 0,0 0.57515,2.492535 0.10852,3.490743 -0.11099,0.22878 -0.27083,0.380806 -0.50953,0.403076 -1.27332,0.11875 -5.4581,0.439217 -6.87917,-0.634069 -1.42095,-1.073438 -1.18372,-4.986602 0.2806,-7.078638 0.41186,-0.58839 0.93217,-0.885526 1.52756,-0.912606 0.0234,-9.93e-4 0.0479,-0.0021 0.0718,-0.0021 z m 133.381,12.595097 10e-4,5.17e-4 c 0.19811,-3.9e-4 0.36008,0.09052 0.45992,0.318326 0.54965,1.253678 2.17241,6.199016 1.90783,8.220412 -0.26458,2.021266 -4.24909,5.835188 -6.30504,5.40255 -2.05595,-0.43267 -3.1602,-6.252785 -0.99593,-11.269225 0,0 4.01732,-2.639183 4.9141,-2.672063 0.005,-1.9e-4 0.0128,-4.77e-4 0.0181,-5.17e-4 z m -11.08356,3.391007 c -2.18994,3.410534 -4.24457,6.920389 -5.93917,10.606071 -3.40164,6.802778 -4.86142,15.424887 -0.23771,22.044137 1.50228,4.05683 2.94765,3.77622 4.42454,-0.38034 1.87571,-4.9296 5.56202,-9.348898 11.40447,-7.85327 -6.53988,11.47988 -13.28682,22.9342 -19.77864,34.36638 -2.27423,4.59593 -6.49943,8.69909 -4.55786,14.30403 1.24265,2.7544 2.16354,4.07266 3.70417,6.81302 2.94457,7.07957 5.07766,-4.17476 7.51685,-6.69829 3.1074,-5.81966 7.81433,-13.12372 15.43162,-12.23492 -9.73717,13.59361 -17.59813,28.39242 -25.93744,42.85269 -2.26679,4.42576 -5.81528,8.01766 -6.30297,13.22658 0.64943,3.82802 3.00965,6.29841 4.70669,9.67589 2.57246,-0.46798 6.30511,-11.99424 9.02451,-15.15947 1.24682,-3.78713 5.09862,1.35275 4.93045,4.62878 -1.34823,5.89208 -7.69367,12.99488 -10.30247,18.34107 4.03804,1.6e-4 12.61791,1.33785 16.656,1.33798 2.13957,-0.72766 2.86547,2.49991 2.78226,3.89847 -0.33234,1.16765 -0.2347,2.98076 -1.02288,3.35918 -2.21099,1.06155 -9.77962,-1.0151 -13.22723,-1.4375 -4.62962,-0.66022 -10.86803,0.55262 -12.66108,5.8142 -0.73038,1.1393 -2.12786,3.66947 -3.10989,5.33353 -2.28857,-10e-4 -4.57716,-10e-4 -6.86573,-0.002 l 8.06669,-14.00741 c -3.0384,4.1474 2.83708,-4.09671 0.93638,-6.2637 -4.17133,-10.77701 -10.4458,-20.65669 -16.6238,-30.39401 -2.88939,-2.86574 -1.1629,-3.31339 1.99058,-2.85203 5.90081,0.46665 6.58019,8.0674 9.81697,11.84373 2.66807,-4.57676 5.27169,-9.26452 8.01812,-13.70563 1.68069,-3.17426 4.29244,-6.04384 3.15691,-10.55904 -4.44387,-8.34481 -9.80976,-16.23854 -14.3769,-24.54579 -0.68955,-3.21962 -9.03761,-11.37589 -2.01486,-10.08052 6.52364,-0.45021 7.38898,7.70629 10.31151,11.86749 2.9589,-5.04884 5.76897,-10.09807 8.67854,-15.14688 2.8195,-3.21623 3.23146,-9.36439 0.52193,-12.56926 -4.65025,-7.26661 -7.08404,-16.461674 -4.47673,-24.888918 3.36687,-5.649698 9.63647,-8.756034 15.35617,-11.53418 z m -103.73062,5.442562 c 0.0161,-2.81e-4 0.0315,3.57e-4 0.046,0.001 l -5.2e-4,-0.001 c 0.0617,0.003 0.12009,0.01014 0.17467,0.02274 0.005,9.7e-4 0.0133,4.64e-4 0.0186,0.0057 l 5.2e-4,-0.0015 c 0.19155,0.0463 0.33142,0.151115 0.38705,0.342615 0.30643,1.052118 1.25822,4.524388 0.64027,5.950024 -1.01728,4.151029 -8.33215,5.751677 -10.24123,4.949569 -1.90909,-0.802208 0.71743,-6.179452 3.70778,-9.362736 0,0 4.2505,-1.888616 5.26686,-1.906344 z m 11.97033,3.531051 v 5.17e-4 c 0.0402,-2e-4 0.0798,-1.64e-4 0.11938,5.16e-4 v 5.17e-4 c 0.81284,0.0129 1.50927,0.230053 1.72806,1.272791 1.28366,1.267816 0.83281,2.535562 -0.18191,3.802868 -1.89398,3.280774 -3.78783,6.56152 -5.68182,9.842294 4.31722,0.285404 8.76155,-0.646218 12.98319,0.419092 2.11522,1.12567 0.41521,4.9787 1.66932,6.8715 -10.91447,-3.69093 -18.52269,-1.85222 -30.04692,-0.56129 l 2.31594,6.65134 c 4.4823,3.69928 9.49141,4.08507 13.65855,4.51401 4.02556,-0.59546 6.55476,-0.39665 10.08535,-0.52609 0.56723,1.26429 0.92343,1.33889 0.76326,3.79305 -0.45608,1.74567 -0.71732,3.42089 -1.22595,3.18802 -3.78816,1.3e-4 -13.21828,-0.88886 -17.00646,-0.88856 1.91158,3.88148 5.54756,9.34502 6.73583,13.53363 1.05521,2.79789 -3.43705,6.15143 -4.44986,8.18451 -2.18056,-13.42502 -17.87052,-27.10981 -20.90034,-43.22071 2.14055,6e-5 8.54979,-1.41522 10.69031,-1.42988 2.96989,-0.0194 8.99879,-1.525769 10.65051,-5.476671 1.99659,-2.585994 3.65523,-7.520504 6.27455,-9.93221 0.5654,0.0576 1.21864,-0.03627 1.81901,-0.03927 z m 60.2263,2.058789 c 0.07,0.09149 -9.79522,12.893996 -10.65775,35.314636 l 0.3452,-23.81508 c 0,0 4.5699,-7.222099 9.52345,-11.104231 0.34829,-0.27311 0.60375,-0.396184 0.77722,-0.389124 0.005,-0.0055 0.009,-0.0062 0.0119,-0.0062 z m 11.67876,24.722136 c -0.72222,-1.94064 2.16279,-0.39315 2.29643,-0.1938 0.7127,1.06251 3.2495,6.96302 2.90647,8.67636 -0.34306,1.7132 -4.14835,3.21755 -6.81406,2.85098 -2.66572,-0.36672 -4.53582,-6.02939 -1.72938,-10.28131 0,0 2.17781,-1.02437 3.34054,-1.05223 z m -115.81109,3.8863 c 0,0 3.44845,16.15663 6.76155,21.19746 4.12208,6.27167 25.69811,28.21287 31.45819,33.17704 6.79708,5.85792 15.86611,20.0663 17.53363,21.84942 2.86073,3.33385 3.70745,6.96179 3.3383,7.95663 -1.99864,-3.67685 -18.55135,-23.62868 -23.8187,-27.28826 -5.26746,-3.65961 -26.66581,-26.05412 -29.81071,-29.88586 -3.14494,-3.83179 -5.63622,-12.57512 -5.63622,-12.57512 z m 144.29524,2.64991 c 1.5127,-0.013 2.00747,-1.0479 3.91669,2.00928 0,0 -0.95097,6.87017 -1.4176,7.86836 -0.11099,0.22878 -0.27083,0.38081 -0.50953,0.40308 -1.27332,0.11875 -5.4581,0.43922 -6.87917,-0.63407 -1.42095,-1.07344 -1.18372,-4.9866 0.2806,-7.07864 0.41186,-0.58839 2.45829,-5.26314 3.05368,-5.29022 0.0236,-10e-4 1.87606,1.40801 1.55533,2.72221 z m -91.07453,15.51864 c 1.17198,-0.044 0.51381,11.51764 0.41444,12.56461 0.0394,0.0773 0.0546,0.41271 0.0517,0.93948 v 5.2e-4 c -0.0236,3.69379 -0.51625,15.21457 -0.51625,15.21457 l -1.99057,-1.7818 c -6.45717,-6.95699 -1.17558,-0.41212 -8.33593,-8.8222 2.52977,-3.00547 4.61332,-3.11891 7.58042,-9.51105 1.41733,-6.33739 2.28265,-8.58491 2.79621,-8.60413 z m -54.97029,15.38925 c 0,0 26.56839,23.12046 38.56922,36.15076 11.23814,12.20191 23.98614,18.23351 23.98614,48.74328 h -62.33728 z m 149.82135,5.27047 -0.34055,31.7376 c 0,0 -9.3014,-4.78161 -9.57513,-7.81141 -0.48455,-5.36335 4.68029,-15.46403 9.91568,-23.92619 z m -146.79414,1.0263 v 75.54939 l 56.06066,-0.20205 c 0,-27.04156 -12.10148,-31.43304 -22.18986,-42.24807 -10.77277,-11.54897 -33.8708,-33.09927 -33.8708,-33.09927 z m 105.8042,-1.40447 c 3.66103,1.61017 5.6171,7.11735 7.64675,10.21478 0,0 0.64105,2.77828 0.12093,3.89072 -0.12359,0.25499 -0.30189,0.42477 -0.56793,0.44959 -1.41903,0.13203 -6.08249,0.48883 -7.6662,-0.70745 -1.58361,-1.19628 -5.24163,-9.08055 -3.61007,-11.41199 2.94469,-1.43977 9.36353,-3.74638 4.07652,-2.43565 z m -99.4418,18.159 h 5.2e-4 c 3.28482,3.68141 34.82045,35.43084 41.7375,52.36631 -5.48199,0.45856 -7.45843,2.38696 -9.39374,-0.74 -1.48032,-2.39181 -2.66987,-6.89827 -5.3078,-10.2314 -2.75822,-3.48512 -6.23565,-6.46813 -8.15896,-7.24595 -0.59926,-0.24235 -2.40889,5.24443 -3.49662,9.49836 -0.82977,3.24509 -1.19614,4.92469 -2.06078,7.06535 -0.76647,1.89763 -1.1233,3.60419 -2.52491,3.8163 -1.00641,0.15209 -3.86918,0.0688 -5.56504,0.10284 0.27358,-2.07538 2.05611,-4.81816 2.66185,-8.5323 0.2862,-1.87563 1.24918,-5.48083 1.31775,-6.31589 0.90596,-5.22309 2.71692,-11.79228 0.26149,-15.46572 -0.62735,-1.26993 -3.29646,-5.6408 -3.41685,-5.93556 -1.78891,-2.06832 -5.48664,-5.92631 -6.48384,-7.87342 -0.73862,-3.52308 -0.84906,-0.62899 0.42943,-10.50892 z m 0.4284,21.43125 c 0.54686,0.0897 1.3354,1.30984 2.49494,3.12694 0.49088,0.76928 1.56443,3.24568 1.78852,5.71697 0.2355,2.59722 1.63714,3.40763 -1.16531,6.88175 -0.7518,0.93201 -1.99691,2.8341 -2.76675,4.22713 l -1.39992,2.53318 0.19792,-4.42867 c 0.10856,-2.43576 -0.49195,-5.23851 -0.4656,-6.61355 0.16488,-8.60198 0.40475,-11.59323 1.3162,-11.44375 z m 134.40782,2.5268 c 0,0 2.01191,0.45594 2.57297,1.14515 0.12727,0.16083 3.01558,3.37192 1.77277,4.08946 -0.68854,0.39753 -1.16721,4.3865 -2.44507,5.042 -1.27791,0.6554 -5.85855,-2.69788 -6.8642,-4.49487 -1.00572,-1.79709 0.87916,-5.33771 4.96353,-5.78174 z m -36.16472,7.27777 c 0.0433,-7.1e-4 0.0864,5.2e-4 0.12919,0.003 1.84634,0.0955 3.08966,2.89154 3.21272,7.3918 0,0 -2.75957,4.99121 -2.75957,3.83701 v -5.2e-4 c -0.22146,0.14755 -0.44696,0.20015 -0.67438,0.0941 -1.21289,-0.56807 -5.16185,-2.49745 -5.87613,-4.22041 -0.71422,-1.72305 2.58136,-5.75796 5.01319,-6.87093 0.33249,-0.15209 0.65138,-0.2284 0.95498,-0.23358 z m -78.2283,14.81873 c 0.82651,0.0331 2.8226,1.4306 3.47575,2.45619 1.31224,2.06044 -2.55449,4.48369 -4.49481,2.81688 -0.85774,-0.73682 -0.87413,-1.26334 -0.10852,-3.46749 0.33843,-0.97427 0.81146,-1.78637 1.0511,-1.80454 0.0241,-0.002 0.0498,-0.002 0.0765,-0.001 z"
     sodipodi:nodetypes="ccccccccccccccccccccccccccccscccccccccscccsscccsccsccccccccccccccccccccccccsccsccccsccccsccssccccsccsccscccccccscccccccssccscscscccsscscccccccccccccccccccccccccsccccccccccccscccccccccsccccccccsccccccccccccccccccccccsccccssccsscccccscssccccsccccccccccccscccsccsssccscssccccscccccccsscssssccssccccsccccccccscccsssscccscssssscss" /><path
     id="path23518-7"
     style="display:inline;fill:#000000;stroke:none;stroke-width:1.4px;stroke-linecap:butt;stroke-linejoin:miter;stroke-opacity:1"
     inkscape:label="N"
     d="M 0.0072347,5.8185e-4 V 253.99024 l 192.4740453,0.0103 -0.005,-253.99998815 z m 9.16791,7.92303005 H 183.31492 l 0.004,238.1399781 -174.1433853,-0.0103 z M 178.73432,11.906312 13.757815,11.906832 V 242.08502 l 164.980635,0.009 z m -41.14582,7.44141 c 0.013,37.41979 0.85008,75.79452 0.0233,112.781738 C 97.502605,75.396522 56.171145,57.184862 56.320645,20.220012 Z m -89.564565,0.33124 c 0,13.99173 3.71255,26.08149 10.60814,35.99987 26.28397,37.34133 65.210715,60.969208 84.966905,103.071738 1.68543,3.2161 2.17328,4.16498 3.05925,0.007 l -0.004,-138.912968 h 22.91386 l 0.005,214.312498 H 55.202115 l -0.1478,-132.43791 c 43.2382,40.60497 73.031315,77.61552 78.725425,132.16713 l -17.59686,0.26975 h 25.88835 c -2.60494,-18.95084 -6.67099,-38.34485 -16.17163,-56.05601 -17.86509,-33.50314 -44.732705,-63.58651 -75.853765,-90.328338 -0.53029,-0.2388 -0.99754,-0.36589 -1.4087,-0.39377 -0.13705,-0.009 -0.2679,-0.008 -0.39274,0.005 -2.16374,0.21388 -2.52913,3.61202 -2.41019,7.86773 l 0.1788,139.477268 -23.8559,-0.57154 c 0.43587,-71.06282 1.90536,-139.994628 0.76429,-214.312488 z m 86.748715,2.73782 -75.536475,0.0915 c 2.76756,36.44686 44.772135,57.78923 75.692015,101.648568 1.1449,-32.878438 -0.14258,-84.783498 -0.15554,-101.740038 z m -43.267125,4.50102 c 0,0 1.96599,0.17861 2.88199,0.49402 2.40646,0.82867 1.98541,4.26331 1.98541,4.26331 0,0 -4.02678,8.15224 -6.4332,12.32224 -1.87555,4.75922 -2.91051,4.95858 -1.15497,8.63824 l -0.1328,-0.17157 0.14314,0.19534 c -0.002,-0.004 0.52717,0.51936 0.52617,0.51469 l 4.1031,5.33353 c 0.40269,0.45526 0.72431,0.81149 1.10226,1.23765 5.627555,-9.35941 10.571335,-18.3225 14.369665,-32.62592 1.76731,1.72036 5.30351,3.22379 3.39618,9.70897 -1.51767,3.05493 -3.37261,8.74379 -5.04156,11.76983 5.49087,-0.77568 5.5928,-1.36347 12.27884,-0.91364 1.43875,0.0967 10.33912,1.29465 10.77712,2.21433 -0.13229,4.76208 -1.65098,3.78901 -3.38119,4.01474 -5.13246,-0.5117 -8.55975,-1.57873 -13.70562,-0.49041 -3.70091,0.4848 -7.74743,1.2605 -9.69863,3.72949 -0.72118,0.70123 -1.81733,2.72159 -1.99007,2.86701 -0.95993,1.58285 -1.35153,2.0333 -2.613785,4.04885 5.712025,6.07087 10.171595,9.14174 18.531165,10.44949 l 5.81877,-0.33693 c 4.81452,0.001 7.03471,-0.14779 7.03471,-0.14779 l 1.71411,2.96984 -1.72135,2.97811 -14.67869,0.69402 c 7.00515,12.50323 17.04455,17.134038 12.6508,24.795068 C 101.36378,76.337 96.591045,71.547242 87.894995,60.802032 l -10e-4,-0.002 h -5.1e-4 v -5.1e-4 c -11.34289,-12.75516 -15.88626,-22.69682 -20.7238,-31.00845 l -1.54926,-3.77238 c 8.95721,-0.0182 8.87129,5.02521 17.51934,17.85369 z m 41.068805,-1.91152 0.19534,10.88771 c 0,0 -2.25595,-0.791 -3.55431,-2.48977 -1.44026,-1.71177 -4.05704,-4.07689 -4.76663,-5.59397 -0.17026,-1.27539 -0.20516,-2.74195 -0.20516,-2.74195 z m -12.85658,10.31824 c 1.63942,-0.074 3.42619,1.60547 4.79247,4.63124 0,0 0.0409,2.24331 -0.66094,3.0825 -0.16488,0.19206 -0.36305,0.31294 -0.61391,0.31212 -1.33731,-0.004 -5.71671,-0.0781 -6.94221,-1.14411 -1.22539,-1.06606 -0.11546,-4.49086 1.85518,-6.20841 0.49268,-0.42941 1.02294,-0.64867 1.56941,-0.67334 z m 12.21201,25.14922 -1.60297,3.89156 c 0,0 -4.25871,1.46212 -5.18883,1.27331 -0.93011,-0.18882 -4.47955,0.45266 -5.29321,0.24546 -0.81367,-0.2072 -4.94341,-0.94276 -6.87213,-1.13928 -3.72236,-0.32385 -5.69975,1.21426 -7.17833,0.88429 0.0673,-1.2506 1.7403,-3.47105 3.22891,-4.14474 1.48862,-0.67369 5.61044,-0.97979 6.85023,-0.97979 1.23979,0 10.12021,1.49824 11.97136,0.97204 1.85115,-0.5262 3.88814,-1.39423 3.88814,-1.39423 z m -74.493475,47.635478 0.55294,123.43794 72.962465,0.26665 C 125.92121,182.12118 96.540695,144.7688 59.391205,109.89929 Z m 4.37751,9.44128 c 1.61256,0.0326 4.53819,1.49988 6.74946,10.55492 0.76313,3.12492 -6.38462,-2.21486 -6.38462,-2.21486 l -1.5596,-8.07289 c 0,0 0.46178,-0.28198 1.19476,-0.26717 z m 0.25735,12.90309 c 10.94165,4.83765 1.32236,7.20876 11.57914,16.80466 2.11394,-3.95778 4.09827,-6.4486 5.18883,-11.45408 l 4.11086,1.788 1.71462,2.96985 c 0,0 -2.18274,3.639 -4.68963,7.98401 l 0.10697,-0.13178 c -3.43992,5.96245 -2.08921,8.37882 0.32918,12.51138 l -0.0744,-0.0749 2.76056,4.78214 c 7.32489,-12.31746 4.3876,-11.35427 13.21934,-11.37967 -6.0335,8.05637 -11.01524,17.74647 -16.34732,28.70471 l 0.11472,-0.14728 c -3.4398,5.96244 -2.08922,8.37881 0.32918,12.51138 l -0.19637,-0.28732 3.2644,5.65392 -10e-4,0.002 3.43493,5.94951 2.76004,-4.78059 -0.076,0.0791 c 2.41828,-4.13256 3.76909,-6.54893 0.32917,-12.51138 l 0.0811,0.0879 c -1.80484,-3.12789 -2.32519,-3.38951 -2.47841,-3.29644 l 1.6459,-2.85047 3.4401,0.002 4.22455,6.0787 c 7.325635,-12.3185 4.387335,-11.3553 13.219345,-11.3807 -8.68236,12.31869 -12.451565,17.81136 -16.325105,28.66595 l 0.0966,-0.11059 c -3.43991,5.96233 -2.08922,8.37881 0.32918,12.51138 l -0.14521,-0.19637 3.21117,5.5609 c 6.538245,-9.20817 11.449425,-17.46157 17.184995,-29.76252 4.39374,7.6609 3.56507,5.35779 -3.4401,17.86092 7.00909,7.97154 -0.62004,1.52829 -7.19594,12.5181 -1.20466,1.87798 -2.19861,3.35029 -3.60134,5.06688 l -5.223965,-0.51005 -1.53324,-0.42943 -2.80396,-4.29225 0.0631,0.16227 c -2.34903,-4.17016 -3.07602,-5.65411 -10.67067,-6.54121 l 0.15554,-0.0253 c -4.80488,-0.001 -6.72465,-0.003 -6.72465,-0.003 0,0 -1.5957,-1.88388 -1.71411,-2.96932 -0.11841,-1.08556 -1.96696,-2.24094 0.94155,-2.97812 2.90851,-0.73718 10.83353,0.0609 10.81639,-5.1e-4 -5.86541,-14.9045 -12.36285,-23.45885 -21.78833,-38.75888 8.78785,0.19334 3.32235,-0.10454 11.4763,8.99118 l 2.84427,-4.92631 -0.15916,0.22221 c 2.4184,-4.13268 3.76897,-6.54905 0.32918,-12.51138 l 0.10748,0.13746 c -7.4459,-17.92603 -15.64232,-17.48689 -14.2198,-35.29656 z m 3.05459,30.60124 c 1.6182,-0.019 3.37054,1.65482 4.71548,4.6333 0,0 0.0414,2.24383 -0.66043,3.08302 -0.16488,0.19206 -0.36357,0.31243 -0.61443,0.31161 -1.33731,-0.004 -5.7167,-0.0781 -6.94221,-1.14412 -1.22539,-1.06606 -0.11546,-4.49034 1.85518,-6.20789 0.49269,-0.42941 1.02294,-0.64919 1.56942,-0.67386 0.0256,-0.001 0.0513,-0.002 0.077,-0.002 z m 33.70802,6.72982 c 0,0 2.449095,0.68457 3.132105,1.71927 0.15493,0.24144 0.22143,0.49582 0.13901,0.76791 -0.43865,1.45072 -1.94283,6.1814 -3.498485,7.16546 -1.55568,0.98392 -4.91285,-1.33406 -6.1371,-4.0318 -1.2243,-2.69786 1.39232,-4.95424 6.36447,-5.62084 z M 67.824795,197.804 c 1.6182,-0.019 3.37054,1.65484 4.71548,4.63331 0,0 0.0409,2.24331 -0.66094,3.0825 -0.16488,0.19206 -0.36306,0.31295 -0.61392,0.31213 -1.33731,-0.004 -5.7167,-0.0781 -6.94221,-1.14412 -1.22539,-1.06606 -0.11546,-4.49086 1.85518,-6.20841 0.49269,-0.42941 1.02294,-0.64867 1.56942,-0.67334 0.0256,-0.001 0.0513,-0.002 0.077,-0.002 z m 57.461605,18.57923 c 1.008,4.51916 1.54992,8.935 1.43299,13.20488 -5.31257,-0.0733 -13.73334,1.13993 -14.44769,-1.22111 0,0 5.67159,-2.87115 10.54974,-6.15673 z m -64.412595,3.45302 c 0,0 2.00687,1.94612 1.97042,2.68201 -0.0638,1.28777 1.48724,5.01229 5.28546,4.94285 1.36974,-0.025 5.16661,2.08721 5.16661,2.08721 l -12.71912,-0.23616 z"
     sodipodi:nodetypes="ccccccccccccccccccccccccccccccccccccccccccccccccccccccccccccccccccccccccccccccccsccccsccccssccsssccsscccsccssccscccccccccccccccccccccccccccccccccccccccccccsscccccccccccccssccccccccccccsscccccccsscccssccc" /><metadata
     id="metadata73787"><rdf:RDF><cc:Work
         rdf:about=""><cc:license
           rdf:resource="http://creativecommons.org/licenses/by-sa/4.0/" /><dc:title>NixCon</dc:title><dc:creator><cc:Agent><dc:title>Ana Barroso</dc:title></cc:Agent></dc:creator><dc:description>The letters for &quot;NixCon&quot; arranged in a 3x2 grid, in a style based on the Kramer font designed by Dieter Steffmann, with &quot;Darmstadt 2023&quot; below in the Behrensschrift font.</dc:description></cc:Work><cc:License
         rdf:about="http://creativecommons.org/licenses/by-sa/4.0/"><cc:permits
           rdf:resource="http://creativecommons.org/ns#Reproduction" /><cc:permits
           rdf:resource="http://creativecommons.org/ns#Distribution" /><cc:requires
           rdf:resource="http://creativecommons.org/ns#Notice" /><cc:requires
           rdf:resource="http://creativecommons.org/ns#Attribution" /><cc:permits
           rdf:resource="http://creativecommons.org/ns#DerivativeWorks" /><cc:requires
           rdf:resource="http://creativecommons.org/ns#ShareAlike" /></cc:License></rdf:RDF></metadata><g
     aria-label="Darmstadt"
     transform="matrix(1.1477192,0,0,1.1477192,-7.5748061,-1790.1802)"
     id="text386"
     style="font-size:95.9575px;line-height:1.25;font-family:'Behrensschrift SH';-inkscape-font-specification:'Behrensschrift SH';letter-spacing:0px;word-spacing:0px;white-space:pre;shape-inside:url(#rect388);display:inline"
     inkscape:label="Darmstadt"><path
       d="m 53.336761,2052.9787 c 0,-3.7424 -0.575745,-7.4847 -1.823193,-11.419 -1.53532,-4.7979 -3.550427,-7.8685 -6.141279,-9.1159 -1.727235,-0.8637 -5.181705,-1.2475 -10.36341,-1.2475 0,0 -16.216817,0 -16.216817,0 -0.575745,0 -1.247447,-0.1919 -2.015107,-0.4798 -1.055533,-0.3838 -1.727235,-0.5757 -2.015108,-0.6717 -1.343405,0.4798 -2.974682,1.4394 -4.8938322,2.9747 -2.2070224,1.7272 -3.2625549,3.1666 -3.2625549,4.3181 0,1.1515 1.53532,1.7272 4.7019171,1.7272 1.631278,0 3.550428,-0.096 5.853408,-0.3838 0,0 0.38383,0.2879 0.38383,0.2879 0,0 0.09596,0.3838 0.09596,0.3838 -3.742342,2.5908 -5.949365,4.606 -6.621067,6.1413 0.287872,0.5757 0.959575,1.3434 2.015107,2.207 0.575745,0.4798 0.863618,1.6313 0.863618,3.3585 0,0 -0.38383,31.7619 -0.38383,31.7619 -2.015108,4.702 -4.0302152,8.0605 -5.9493651,9.9796 0,0.9596 0.8636175,1.4394 2.4948951,1.5353 0,0 -0.5757452,-0.096 -0.5757452,-0.096 2.6868102,-0.1919 6.4291522,-0.1919 11.3229842,0 5.277663,0.1919 9.115963,0.2879 11.322985,0.2879 1.631277,0 5.949365,-0.192 7.580642,-0.192 2.111065,-2.207 4.701918,-7.0049 7.772557,-14.4895 2.974683,-7.1969 4.701918,-12.5705 5.085748,-15.929 0.479787,-4.7019 0.76766,-8.3483 0.76766,-10.9391 z m -9.787665,8.7321 c 0,1.8232 -0.09596,4.0302 -0.38383,6.5251 -0.287872,3.3585 -0.76766,5.3736 -1.247447,6.1413 -0.09596,1.6313 -0.575745,3.8383 -1.439363,6.621 -0.959575,3.1666 -1.91915,5.1818 -2.878725,5.8535 -9.307877,0 -15.257242,0.096 -17.944052,0.1919 0,0 -0.575745,-0.8636 -0.575745,-0.8636 2.015108,-3.0707 3.166598,-4.702 3.358513,-4.9898 1.055532,-2.0151 1.631277,-3.9343 1.631277,-5.7575 0,0.2879 -0.09596,-0.9596 -0.287872,-3.8383 -0.09596,-1.8232 0,-3.0706 0.287872,-3.6464 -0.479787,-1.7272 -0.671702,-5.7574 -0.671702,-11.9947 0,-1.8231 0.09596,-4.6059 0.191915,-8.3483 0.191915,-3.7423 0.287872,-6.621 0.287872,-8.4442 0,0 0.671703,-0.4798 0.671703,-0.4798 0,0 3.166597,0 3.166597,0 6.237237,0 10.555325,2.3989 12.954262,7.2928 1.91915,3.9342 2.878725,9.1159 2.878725,15.641 0,0 0,0.096 0,0.096 z"
       id="path421" /><path
       d="m 95.270166,2087.9072 c 0,0 0,-1.2475 0,-1.2475 0,0 -1.727235,-1.2474 -1.727235,-1.2474 -0.09596,-1.6313 -0.191915,-3.3585 -0.191915,-5.2777 0,0 0.09596,-13.7219 0.09596,-13.7219 0.09596,-6.0453 0.09596,-10.6513 0.09596,-13.626 0,-3.8383 -2.68681,-5.7574 -7.964472,-5.7574 0,0 -12.858305,0 -12.858305,0 -1.53532,0 -3.838299,1.3434 -6.908939,4.0302 -2.974683,2.5909 -4.510003,4.7019 -4.510003,6.2372 0,1.0556 0.575745,1.5354 1.631278,1.5354 0,0 0.38383,-0.096 0.38383,-0.096 2.974682,-2.303 5.37362,-3.6464 7.100855,-4.1262 0.959574,-0.2878 3.742342,-0.3838 8.252344,-0.3838 3.742343,0 5.565535,0.8636 5.565535,2.4949 0,1.6313 -3.166597,3.8383 -9.403835,6.5251 -7.100854,2.9747 -11.418942,5.4696 -12.858304,7.3887 -1.055533,1.3434 -1.631278,3.4545 -1.91915,6.3332 0,0 0,6.813 0,6.813 0,7.1968 2.207022,10.7473 6.621067,10.7473 2.30298,0 5.181705,-0.8637 8.540217,-2.6869 3.742343,-2.0151 6.429153,-3.4544 8.252345,-4.51 0,0 0.38383,0.2879 0.38383,0.2879 -0.09596,4.7019 0.671703,7.1009 2.494895,7.1009 1.53532,0 4.414045,-2.1111 8.732132,-6.4292 0,0 0.191915,-0.3838 0.191915,-0.3838 z m -11.227027,-22.4541 c -0.09596,3.1666 -0.09596,8.3483 -0.09596,15.6411 -0.575745,1.0555 -2.207023,2.207 -4.98979,3.2626 -2.494895,1.0555 -4.510003,1.5353 -5.949365,1.5353 -2.207022,0 -3.262555,-1.5353 -3.262555,-4.606 0,-4.3181 0.287873,-7.1008 0.959575,-8.3483 0.671702,-1.2474 2.68681,-2.9747 6.14128,-5.1817 3.166597,-2.0151 5.37362,-2.9747 6.621067,-2.9747 0,0 0.575745,0.6717 0.575745,0.6717 z"
       id="path423" /><path
       d="m 130.77447,2050.4838 c 0,-2.4949 -2.11107,-3.7424 -6.3332,-3.7424 0,0 -7.38872,0 -7.38872,0 -1.05554,0 -2.30298,0.7677 -3.55043,2.207 0,0 -0.38383,0 -0.38383,0 -0.86362,-0.8636 -1.43936,-1.5353 -1.72723,-2.111 0,0 -0.76766,-0.3838 -0.76766,-0.3838 -1.63128,0.2878 -3.64639,1.2474 -5.85341,3.0706 -2.4949,1.9191 -3.74234,3.6464 -3.74234,5.0857 1.3434,0.7677 1.91915,2.6868 1.72723,5.8534 0,0 0.19192,0.4798 0.19192,0.4798 0,1.0556 -0.096,4.2222 -0.38383,9.4998 -0.19192,3.9343 -0.28788,7.1009 -0.28788,9.4998 0,2.207 0.096,3.7424 0.19192,4.606 -0.28787,1.0555 -0.38383,2.3989 -0.38383,3.8383 0,4.1261 1.15149,6.1413 3.35851,6.1413 1.05553,0 2.97468,-0.9596 5.56554,-2.7828 2.59085,-1.9192 3.93425,-3.3585 3.93425,-4.3181 0,0 -0.38383,-0.5757 -0.38383,-0.5757 0,0 -1.91915,-1.1515 -1.91915,-1.1515 0,0 -0.38383,-0.7677 -0.38383,-0.7677 0.19192,-10.4594 0.28788,-20.4389 0.28788,-29.8428 0.57574,-0.6717 1.82319,-1.0555 3.74234,-1.0555 2.78276,0 4.70191,0.4798 5.8534,1.5353 0.19192,0.8636 0.28788,1.9192 0.28788,3.0707 0,0 0.6717,0.3838 0.6717,0.3838 0,0 0.19191,0 0.19191,0 0.86362,-0.4798 2.20703,-1.7273 4.03022,-3.8383 1.82319,-2.207 2.97468,-3.7424 3.45447,-4.7019 z"
       id="path425" /><path
       d="m 192.47523,2087.3314 c -0.096,-0.096 -0.47979,-0.4797 -1.24745,-1.3434 -0.57575,-0.5757 -0.86362,-0.9595 -0.86362,-1.2474 0,0 0.38383,-32.9134 0.38383,-32.9134 -1.05553,-2.2071 -2.11106,-3.6464 -2.97468,-4.1262 -0.86362,-0.4798 -2.4949,-0.7677 -5.08575,-0.7677 0,0 -14.6815,-0.096 -14.6815,-0.096 -6.62106,-0.096 -11.51489,-0.096 -14.77745,-0.096 -0.6717,0 -1.72723,0.4798 -3.1666,1.3434 -1.91915,1.2475 -2.97468,1.9192 -3.26255,2.0151 0,0 -0.47979,-0.5757 -0.47979,-0.5757 -0.47979,-1.0555 -0.86362,-1.9192 -1.3434,-2.4949 0,0 -1.15149,-0.5757 -1.15149,-0.5757 -1.24745,0.096 -3.26256,1.0555 -5.85341,2.9746 -2.59085,1.9192 -3.93426,3.4545 -4.03022,4.606 0,0 0.38383,0.7677 0.38383,0.7677 1.24745,0.5757 1.91915,1.8231 1.91915,3.8383 0,0.8636 -0.28787,3.2625 -0.28787,4.1261 0,0 0.19192,28.4034 0.19192,28.4034 0,2.2071 0.86361,3.3586 2.49489,3.3586 1.24745,0 2.97468,-0.9596 5.37362,-2.9747 2.39894,-2.0151 3.64639,-3.5505 3.64639,-4.7019 0,0 -0.19192,-0.3839 -0.19192,-0.3839 0,0 -1.3434,-0.9595 -1.3434,-0.9595 0,0 -0.19192,-1.4394 -0.19192,-1.4394 0,0 0,-14.3936 0,-14.3936 0,-9.212 0.096,-14.2977 0.38383,-15.1613 0.6717,-0.2879 2.4949,-0.3838 5.27766,-0.3838 3.55043,0 5.37362,1.3434 5.37362,3.9342 0,8.7321 -0.0959,13.2421 -0.19191,13.53 0.28787,1.8232 0.38383,4.0302 0.38383,6.4292 0,1.0555 -0.096,2.5908 -0.28787,4.7019 -0.096,2.111 -0.19192,3.6464 -0.19192,4.7019 0,4.8938 0.76766,7.2928 2.20702,7.2928 1.43937,0 3.45447,-0.9596 5.94937,-2.7828 2.49489,-1.9191 3.74234,-3.5504 3.8383,-4.8938 0,0 -1.72724,-1.0556 -1.72724,-1.0556 -0.28787,-1.2474 -0.47979,-2.8787 -0.47979,-4.9898 0,0 0,-26.0044 0,-26.0044 0,-0.6717 1.72724,-0.9596 5.27767,-0.8636 1.82319,0.096 2.78276,0.096 2.68681,0.096 2.39893,0 4.12617,0.2879 4.98979,0.9596 1.15149,0.8636 1.72723,2.3989 1.72723,4.6059 0,1.2475 -0.19191,4.702 -0.19191,5.9494 0,2.8787 -0.096,7.1968 -0.19192,12.8583 -0.096,5.6615 -0.096,9.9796 -0.096,12.8583 0,1.5353 0.95958,3.3585 2.4949,3.3585 1.3434,0 3.26255,-0.9595 5.66149,-2.7827 2.39894,-1.8232 3.64639,-3.4545 3.64639,-4.702 z"
       id="path427" /><path
       d="m 228.55523,2079.367 c 0,-3.0707 -2.11107,-6.0453 -6.3332,-8.9241 -0.57574,-0.3838 -4.51,-2.4949 -11.70681,-6.4291 -4.12618,-2.207 -6.23724,-4.2222 -6.23724,-5.8534 0,-1.2475 0.86362,-2.9747 2.01511,-2.9747 0,0 7.38872,0 7.38872,0 2.20703,0 3.55043,0.4798 4.12618,1.4393 0,0 0.6717,0 0.6717,0 0.95957,0 2.39894,-0.8636 4.41404,-2.4948 2.01511,-1.6313 3.07064,-2.9747 3.07064,-3.8383 0,-1.3435 -1.82319,-2.1111 -5.46957,-2.399 0,0 -7.29277,0 -7.29277,0 -2.39894,0 -4.41405,0.096 -5.85341,0.3838 -1.63128,0.2879 -3.8383,2.303 -6.42915,5.8535 -2.59085,3.5504 -3.8383,6.2372 -3.8383,8.0604 0,2.7827 1.72723,5.4696 5.27766,7.8685 1.15149,0.8636 4.70192,2.7828 10.65128,5.9494 4.31809,2.3029 7.0049,4.318 7.96447,5.9493 0.28788,0.4798 0.38383,1.7273 0.38383,3.9343 0,0.7676 -1.24744,1.9191 -2.0151,1.9191 0,0 -5.56554,0 -5.56554,0 -2.20702,0 -3.55043,-0.096 -4.03021,-0.3838 -1.72724,-0.9596 -2.78277,-1.5353 -3.1666,-1.7272 -1.15149,0.096 -2.78277,1.0555 -4.98979,2.8787 -2.11106,1.8232 -3.1666,3.2625 -3.1666,4.3181 0,1.1515 1.34341,1.7272 3.93426,1.7272 0,0 17.27235,-0.096 17.27235,-0.096 2.11106,-1.4394 4.12617,-3.6464 6.04532,-6.813 1.91915,-3.1666 2.87873,-5.9494 2.87873,-8.3483 z"
       id="path429" /><path
       d="m 255.42327,2049.2363 c 0,-0.7676 -0.6717,-1.1515 -1.91915,-1.1515 -2.78276,0 -4.41404,-0.3838 -4.98979,-1.0555 -0.47978,-0.6717 -0.76766,-2.4949 -0.76766,-5.4696 0,-1.0555 0.28788,-3.4545 0.28788,-4.51 0,-2.0151 -0.57575,-3.1666 -1.72724,-3.4545 0,0 -1.05553,0.3839 -1.05553,0.3839 -0.76766,1.0555 -1.34341,2.0151 -1.63128,2.7827 -1.63128,3.9343 -4.79787,8.4443 -9.59575,13.3381 -0.76766,0.6717 -1.3434,1.1515 -1.72723,1.4394 -0.67171,0.5757 -1.05554,1.2474 -1.05554,2.0151 0,1.2475 1.05554,1.9192 3.07064,1.9192 2.59086,0 3.8383,0.3838 3.8383,1.0555 0,0 0,4.9898 0,4.9898 -0.096,3.0706 -0.096,5.4696 -0.096,7.1008 0,0 0,12.1866 0,12.1866 0,3.5505 0.28787,6.1413 0.86361,7.8685 0.86362,2.5909 2.59086,4.606 5.18171,5.8535 0.6717,0 1.63128,-0.3839 2.68681,-1.2475 1.43936,-1.0555 2.30298,-1.7272 2.59085,-1.9191 1.24745,-1.1515 2.20702,-2.0151 2.87873,-2.4949 0,0 0.47978,-0.8637 0.47978,-0.8637 0,0 -0.47978,-0.9595 -0.47978,-0.9595 -1.24745,-0.4798 -2.11107,-0.7677 -2.78277,-0.8636 -1.34341,-1.0556 -2.01511,-4.8939 -2.01511,-11.7069 0,-1.1514 0,-2.8787 0.096,-5.1817 0.096,-2.3989 0.096,-4.1261 0.096,-5.2776 0,-3.8383 0.0959,-6.6211 0.38383,-8.2524 1.53532,-0.4798 2.78276,-0.7676 3.8383,-0.8636 2.39893,-2.6868 3.55042,-4.6059 3.55042,-5.6615 z"
       id="path431" /><path
       d="m 294.66993,2087.9072 c 0,0 0,-1.2475 0,-1.2475 0,0 -1.72723,-1.2474 -1.72723,-1.2474 -0.096,-1.6313 -0.19191,-3.3585 -0.19191,-5.2777 0,0 0.096,-13.7219 0.096,-13.7219 0.096,-6.0453 0.096,-10.6513 0.096,-13.626 0,-3.8383 -2.68681,-5.7574 -7.96447,-5.7574 0,0 -12.85831,0 -12.85831,0 -1.53532,0 -3.8383,1.3434 -6.90894,4.0302 -2.97468,2.5909 -4.51,4.7019 -4.51,6.2372 0,1.0556 0.57575,1.5354 1.63128,1.5354 0,0 0.38383,-0.096 0.38383,-0.096 2.97468,-2.303 5.37362,-3.6464 7.10085,-4.1262 0.95958,-0.2878 3.74235,-0.3838 8.25235,-0.3838 3.74234,0 5.56553,0.8636 5.56553,2.4949 0,1.6313 -3.16659,3.8383 -9.40383,6.5251 -7.10086,2.9747 -11.41894,5.4696 -12.85831,7.3887 -1.05553,1.3434 -1.63127,3.4545 -1.91915,6.3332 0,0 0,6.813 0,6.813 0,7.1968 2.20703,10.7473 6.62107,10.7473 2.30298,0 5.18171,-0.8637 8.54022,-2.6869 3.74234,-2.0151 6.42915,-3.4544 8.25234,-4.51 0,0 0.38383,0.2879 0.38383,0.2879 -0.096,4.7019 0.67171,7.1009 2.4949,7.1009 1.53532,0 4.41404,-2.1111 8.73213,-6.4292 0,0 0.19191,-0.3838 0.19191,-0.3838 z m -11.22702,-22.4541 c -0.096,3.1666 -0.096,8.3483 -0.096,15.6411 -0.57574,1.0555 -2.20702,2.207 -4.98979,3.2626 -2.49489,1.0555 -4.51,1.5353 -5.94936,1.5353 -2.20703,0 -3.26256,-1.5353 -3.26256,-4.606 0,-4.3181 0.28787,-7.1008 0.95958,-8.3483 0.6717,-1.2474 2.68681,-2.9747 6.14128,-5.1817 3.16659,-2.0151 5.37362,-2.9747 6.62106,-2.9747 0,0 0.57575,0.6717 0.57575,0.6717 z"
       id="path433" /><path
       d="m 337.37105,2069.4834 c 0,-10.7473 -4.51001,-19.2875 -13.53001,-25.5247 -1.34341,-0.9596 -3.8383,-2.399 -7.48469,-4.4141 -3.26255,-1.8232 -5.75744,-3.3585 -7.38872,-4.7979 -0.6717,-1.2474 -1.43936,-2.3029 -2.11107,-3.1666 -0.95957,0 -3.26255,2.2071 -6.90894,6.7171 0,3.3585 2.78277,6.3332 8.25235,8.924 0,0 0.47979,0.8636 0.47979,0.8636 -3.93426,3.8383 -6.14128,6.2373 -6.42916,7.2928 0,0 0.28788,0.4798 0.28788,0.4798 0,0 1.72723,1.5353 1.72723,1.5353 0,0 0,26.1964 0,26.1964 0,6.9089 4.31809,10.9392 11.22703,10.9392 5.8534,0 10.93915,-2.7828 15.44915,-8.2524 4.31809,-5.2777 6.42916,-10.8432 6.42916,-16.7925 z m -7.77256,0.6717 c 0,4.2221 -0.76766,7.8685 -2.20702,10.9391 -1.8232,4.0302 -4.70192,6.0453 -8.44426,6.0453 -3.55043,0 -5.27766,-4.414 -5.27766,-13.3381 0,-1.2474 0.0959,-3.1666 0.19191,-5.7574 0.096,-2.5909 0.19192,-4.51 0.19192,-5.7575 -0.28788,-0.6717 -0.38383,-3.0706 -0.38383,-7.1008 0,0 0,-3.0707 0,-3.0707 0.0959,-1.2474 0.6717,-1.9191 1.53531,-1.9191 0,0 2.20703,0.5757 2.20703,0.5757 3.93425,3.5505 6.42915,5.8534 7.29277,6.909 1.72723,2.111 3.26255,5.0857 4.70191,9.02 -0.096,0.1919 -0.19191,0.4798 -0.19191,0.8636 0,0.6717 0.38383,1.9192 0.38383,2.5909 z"
       id="path435" /><path
       d="m 365.96636,2049.2363 c 0,-0.7676 -0.6717,-1.1515 -1.91915,-1.1515 -2.78276,0 -4.41404,-0.3838 -4.98979,-1.0555 -0.47978,-0.6717 -0.76766,-2.4949 -0.76766,-5.4696 0,-1.0555 0.28788,-3.4545 0.28788,-4.51 0,-2.0151 -0.57575,-3.1666 -1.72724,-3.4545 0,0 -1.05553,0.3839 -1.05553,0.3839 -0.76766,1.0555 -1.34341,2.0151 -1.63128,2.7827 -1.63128,3.9343 -4.79787,8.4443 -9.59575,13.3381 -0.76766,0.6717 -1.3434,1.1515 -1.72723,1.4394 -0.6717,0.5757 -1.05553,1.2474 -1.05553,2.0151 0,1.2475 1.05553,1.9192 3.07064,1.9192 2.59085,0 3.8383,0.3838 3.8383,1.0555 0,0 0,4.9898 0,4.9898 -0.096,3.0706 -0.096,5.4696 -0.096,7.1008 0,0 0,12.1866 0,12.1866 0,3.5505 0.28787,6.1413 0.86362,7.8685 0.86361,2.5909 2.59085,4.606 5.1817,5.8535 0.6717,0 1.63128,-0.3839 2.68681,-1.2475 1.43936,-1.0555 2.30298,-1.7272 2.59085,-1.9191 1.24745,-1.1515 2.20702,-2.0151 2.87873,-2.4949 0,0 0.47978,-0.8637 0.47978,-0.8637 0,0 -0.47978,-0.9595 -0.47978,-0.9595 -1.24745,-0.4798 -2.11107,-0.7677 -2.78277,-0.8636 -1.34341,-1.0556 -2.01511,-4.8939 -2.01511,-11.7069 0,-1.1514 0,-2.8787 0.096,-5.1817 0.096,-2.3989 0.096,-4.1261 0.096,-5.2776 0,-3.8383 0.096,-6.6211 0.38383,-8.2524 1.53532,-0.4798 2.78276,-0.7676 3.8383,-0.8636 2.39893,-2.6868 3.55042,-4.6059 3.55042,-5.6615 z"
       id="path437" /></g><g
     aria-label="2023"
     transform="matrix(1.2741384,0,0,1.2741384,432.54053,-2042.8467)"
     id="text386-6"
     style="font-size:83.3699px;line-height:1.25;font-family:'Behrensschrift SH';-inkscape-font-specification:'Behrensschrift SH';letter-spacing:0px;word-spacing:0px;white-space:pre;shape-inside:url(#rect388-3);display:inline"
     inkscape:label="2023"><path
       d="m 41.998264,2075.8641 c 0,-0.9171 -1.500658,-1.4173 -4.501975,-1.4173 -1.250548,0 -3.001316,0.083 -5.419044,0.2501 -2.417727,0.083 -4.168495,0.1667 -5.419043,0.1667 -4.501975,0 -6.752962,-0.5002 -6.836332,-1.4172 7.753401,-7.42 12.338745,-12.0053 13.839404,-13.7561 5.252304,-6.2527 7.92014,-11.9219 7.92014,-16.9241 0,-1.9175 -0.917068,-5.0022 -2.667836,-9.254 -2.751207,-3.0013 -6.419483,-4.502 -10.921458,-4.502 -4.752084,0 -9.170689,1.7508 -13.255814,5.1689 -4.251866,3.5849 -6.419483,7.6701 -6.419483,12.4221 0,1.5841 0.1667398,2.918 0.5835893,4.0852 0.5835893,1.6674 1.3339187,2.6678 2.4177267,3.0013 0,0 4.168496,-3.1681 4.168496,-3.1681 2.084247,-1.6674 3.084686,-2.9179 3.168056,-3.6682 -1.500658,-1.5007 -2.250987,-3.1681 -2.250987,-5.0022 0,-3.7517 3.418166,-6.6696 7.169811,-6.6696 3.334796,0 5.585784,1.3339 6.669593,4.0017 0.750329,1.7508 1.083808,4.502 1.083808,8.4204 0,2.0842 -1.750768,5.5858 -5.252304,10.5046 -2.667836,3.7516 -5.252303,6.9197 -7.836771,9.5875 0,0 -0.166739,0.4169 -0.166739,0.4169 -3.001317,2.7512 -5.252304,4.9188 -6.836332,6.4195 -3.5849063,3.5015 -5.4190441,5.6691 -5.4190441,6.5862 0,1.1672 3.1680563,1.7508 9.5875391,1.7508 2.250987,0 5.585783,0 10.004388,-0.083 4.501975,-0.083 7.836771,-0.1668 10.087759,-0.1668 0.833699,-0.4168 2.084247,-1.5006 3.835015,-3.2514 1.750768,-1.7507 2.667837,-2.9179 2.667837,-3.5015 z m -22.509874,-1.7508 c 0,0 -0.33348,0.2501 -0.33348,0.2501 0,0 0,-0.3335 0,-0.3335 0,0 0.25011,0 0.25011,0 0,0 0.08337,0.083 0.08337,0.083 z"
       id="path440" /><path
       d="m 79.764906,2056.5223 c 0,-0.5836 -0.166739,-2.251 -0.416849,-4.9189 -0.25011,-2.6678 -0.50022,-4.0851 -0.58359,-4.3352 -1.333918,-4.2519 -3.084686,-7.8368 -5.252303,-10.9214 -2.917947,-4.1685 -6.086003,-6.2528 -9.504169,-6.2528 -4.418605,0 -8.420361,2.5011 -11.838527,7.5033 -2.751207,4.0018 -4.752084,8.5871 -5.835893,13.6727 0,0 -0.750329,3.4181 -0.750329,3.4181 0,0 0,5.9193 0,5.9193 0,4.9188 1.667398,10.0044 4.918824,15.3401 3.668276,6.0026 7.753401,9.0039 12.338746,9.0039 0.917069,0 2.334357,-0.667 4.418605,-1.9175 1.750768,-1.0838 3.168056,-2.0009 4.168495,-2.9179 1.584028,-1.4173 3.251426,-3.9184 4.835454,-7.42 1.584029,-3.5015 2.501097,-6.3361 2.667837,-8.5871 0,0 0.16674,-0.2501 0.16674,-0.2501 0.41685,-4.0017 0.666959,-6.4195 0.666959,-7.3365 z m -6.669592,5.5024 c 0,8.7538 -2.584467,13.1724 -7.753401,13.1724 -0.833699,0 -2.417727,-0.5002 -4.668715,-1.584 -5.335673,-5.7525 -8.00351,-12.5889 -8.00351,-20.509 0,-3.3348 0.500219,-6.3361 1.584028,-9.0039 1.417288,-3.585 3.501536,-5.3357 6.336112,-5.3357 3.751646,0 6.836333,3.0847 9.4208,9.1707 2.084247,4.9188 3.084686,9.6709 3.084686,14.0895 z"
       id="path442" /><path
       d="m 119.0322,2075.8641 c 0,-0.9171 -1.50066,-1.4173 -4.50198,-1.4173 -1.25054,0 -3.00131,0.083 -5.41904,0.2501 -2.41773,0.083 -4.16849,0.1667 -5.41904,0.1667 -4.501977,0 -6.752965,-0.5002 -6.836335,-1.4172 7.753405,-7.42 12.338745,-12.0053 13.839405,-13.7561 5.2523,-6.2527 7.92014,-11.9219 7.92014,-16.9241 0,-1.9175 -0.91707,-5.0022 -2.66784,-9.254 -2.7512,-3.0013 -6.41948,-4.502 -10.92145,-4.502 -4.75209,0 -9.170694,1.7508 -13.255819,5.1689 -4.251865,3.5849 -6.419482,7.6701 -6.419482,12.4221 0,1.5841 0.166739,2.918 0.583589,4.0852 0.583589,1.6674 1.333918,2.6678 2.417727,3.0013 0,0 4.168495,-3.1681 4.168495,-3.1681 2.084248,-1.6674 3.084687,-2.9179 3.168057,-3.6682 -1.500659,-1.5007 -2.250988,-3.1681 -2.250988,-5.0022 0,-3.7517 3.418166,-6.6696 7.169811,-6.6696 3.3348,0 5.58578,1.3339 6.66959,4.0017 0.75033,1.7508 1.08381,4.502 1.08381,8.4204 0,2.0842 -1.75077,5.5858 -5.2523,10.5046 -2.66784,3.7516 -5.252306,6.9197 -7.836773,9.5875 0,0 -0.16674,0.4169 -0.16674,0.4169 -3.001316,2.7512 -5.252304,4.9188 -6.836332,6.4195 -3.584906,3.5015 -5.419044,5.6691 -5.419044,6.5862 0,1.1672 3.168057,1.7508 9.587539,1.7508 2.250988,0 5.585784,0 10.00439,-0.083 4.50197,-0.083 7.83677,-0.1668 10.08776,-0.1668 0.8337,-0.4168 2.08424,-1.5006 3.83501,-3.2514 1.75077,-1.7507 2.66784,-2.9179 2.66784,-3.5015 z m -22.509874,-1.7508 c 0,0 -0.33348,0.2501 -0.33348,0.2501 0,0 0,-0.3335 0,-0.3335 0,0 0.25011,0 0.25011,0 0,0 0.08337,0.083 0.08337,0.083 z"
       id="path444" /><path
       d="m 156.88221,2060.6074 c 0,-3.835 -0.8337,-6.8363 -2.5011,-9.0873 -0.91706,-1.2506 -2.50109,-2.5011 -4.91882,-3.835 -2.41773,-1.334 -3.66828,-2.1677 -3.83502,-2.5011 0.41685,-1.4173 2.5011,-4.0852 6.08601,-7.8368 3.41816,-3.5849 5.08556,-6.086 5.08556,-7.5033 -0.50022,-0.5836 -3.00131,-0.8337 -7.50329,-0.8337 0,0 -16.84072,0 -16.84072,0 0,0 -0.8337,0.3335 -0.8337,0.3335 -3.25143,5.5024 -4.91882,8.5037 -4.91882,9.0039 0,1.0838 0.58359,1.5841 1.66739,1.5007 0,0 3.83502,-2.6678 3.83502,-2.6678 0.66696,-0.3335 2.16762,-0.5003 4.58535,-0.5003 0,0 6.41948,0 6.41948,0 1.50066,0 2.66783,0.1668 3.41816,0.5003 -1.08381,2.0842 -2.7512,4.4186 -5.16893,7.0864 0,0 -5.91926,6.4195 -5.91926,6.4195 0,0.7503 1.08381,1.5006 3.33479,2.251 2.83458,0.917 4.33524,1.4173 4.58535,1.584 3.5849,2.4177 5.41904,6.086 5.41904,10.8381 0,3.7516 -0.75033,7.2532 -2.33436,10.5046 0,0 -1.16717,0.2501 -1.16717,0.2501 0,0 -12.50549,0 -12.50549,0 0,0 -0.58359,-0.3335 -0.58359,-0.3335 0,0 -1.08381,-1.3339 -1.08381,-1.3339 0,0 -0.50022,-0.3335 -0.50022,-0.3335 -1.75077,0.7503 -3.41816,1.6674 -5.00219,2.8346 -2.16762,1.584 -3.25143,3.0013 -3.25143,4.2519 0,0.917 1.00044,1.4172 2.91795,1.4172 1.41729,0 3.50153,-0.083 6.25274,-0.1667 2.83458,-0.083 4.91883,-0.1667 6.33611,-0.1667 2.08425,0 3.91839,0.083 5.50242,0.3334 2.41772,-0.083 3.66827,-0.1667 3.75164,-0.2501 0.41685,-0.1667 0.8337,-0.5836 1.16718,-1.1671 3.66828,-6.3362 5.66916,-9.9211 6.00263,-10.6714 1.6674,-3.5849 2.5011,-6.8363 2.5011,-9.921 z"
       id="path446" /></g></svg>
